<?xml version="1.0" encoding="utf-8"?>
<!-- Generator: Adobe Illustrator 27.5.0, SVG Export Plug-In . SVG Version: 6.00 Build 0)  -->
<svg version="1.1" id="_ÎÓÈ_1" xmlns="http://www.w3.org/2000/svg" xmlns:xlink="http://www.w3.org/1999/xlink" x="0px" y="0px"
	 viewBox="0 0 3222.8 2116.2" style="enable-background:new 0 0 3222.8 2116.2;" xml:space="preserve">
<style type="text/css">
	.st0{fill:#ED733A;}
	.st1{fill:#9F5BE5;}
	.st2{fill:none;}
	.st3{fill:#FFFFFF;}
	.st4{fill:#2D2D2D;}
	.st5{fill:url(#SVGID_1_);}
	.st6{fill:url(#SVGID_00000096746700926409277080000016219607018476096904_);}
	.st7{fill:url(#SVGID_00000130620433555373664530000000109660775710556308_);}
	.st8{fill:url(#SVGID_00000148619222524995402690000011465147501774846123_);}
	.st9{fill:url(#SVGID_00000048459466259179540540000002862576343254464696_);}
	.st10{fill:url(#SVGID_00000131336630721353865500000012942770729745055379_);}
	.st11{fill:url(#SVGID_00000110450765999129832140000004013345810077064620_);}
	.st12{fill:url(#SVGID_00000128486514702599566780000015736473896463231112_);}
	.st13{fill:url(#SVGID_00000013155545457287120270000013227926842163276199_);}
	.st14{fill:url(#SVGID_00000011746771397157854630000009087814716269986700_);}
	.st15{enable-background:new    ;}
	.st16{fill:#1A1919;enable-background:new    ;}
	.st17{filter:url(#Adobe_OpacityMaskFilter);}
	.st18{mask:url(#_x37_c1b9927d1_00000139991274719833484260000008046529039579426743_);}
</style>
<line class="st2" x1="1294.8" y1="1005.5" x2="1116.8" y2="1183.5"/>
<g>
	<polygon class="st3" points="1435.3,1154.6 1435.6,1153.9 1435.6,1154.6 	"/>
	<path class="st3" d="M1296.1,1004.3c-19.5,19.6-143.6,144.3-189,188.9c-18.1,17.8-41.4,33.7-67,35.1c-33.1,1.9-67.2-5.1-93-29.3
		l-17.8,17.8v79.4c31,16.4,65.4,24.2,99.6,23.4c50.3-1.2,100.2-21,138.6-59.4l84.3-84.3l-1.2,1.2l65.8-64.9
		c-15.3-23.1-22.7-52.4-22.7-82.1C1293.8,1021.3,1294.6,1012.7,1296.1,1004.3L1296.1,1004.3z"/>
</g>
<polygon class="st3" points="1205.8,913.1 1081.8,913.1 910.2,1085.6 910.2,732.7 910.2,672.7 820,762.9 820,1185.1 820,1189.2 
	819.8,1298.9 820,1298.7 820,1319 910.2,1319 910.2,1284.9 910.2,1208.5 910.9,1207.8 1085.7,1033.2 1086.1,1033.6 1141,978.6 
	1140.7,978.2 "/>
</svg>
