<?xml version="1.0" encoding="utf-8"?>
<!-- Generator: Adobe Illustrator 27.5.0, SVG Export Plug-In . SVG Version: 6.00 Build 0)  -->
<svg version="1.1" id="_ÎÓÈ_1" xmlns="http://www.w3.org/2000/svg" xmlns:xlink="http://www.w3.org/1999/xlink" x="0px" y="0px"
	 viewBox="0 0 3222.8 2116.2" style="enable-background:new 0 0 3222.8 2116.2;" xml:space="preserve">
<style type="text/css">
	.st0{fill:#ED733A;}
	.st1{fill:#9F5BE5;}
	.st2{fill:none;}
	.st3{fill:#FFFFFF;}
	.st4{fill:#2D2D2D;}
	.st5{fill:url(#SVGID_1_);}
	.st6{fill:url(#SVGID_00000150819099905459988990000016111337070705393549_);}
	.st7{fill:url(#SVGID_00000042696449502891369630000017464563016023836812_);}
	.st8{fill:url(#SVGID_00000084526597679664055470000015054714612567282563_);}
	.st9{fill:url(#SVGID_00000045610618609270647750000007077045507884904593_);}
	.st10{fill:url(#SVGID_00000037661940609334979750000000500538443241218750_);}
	.st11{fill:url(#SVGID_00000005234465902369520430000007296692402648927616_);}
	.st12{fill:url(#SVGID_00000061470231464819544170000003491635975484295847_);}
	.st13{fill:url(#SVGID_00000009574766761280934990000011134232519972632235_);}
	.st14{fill:url(#SVGID_00000025430107226049241530000016018811765273706374_);}
	.st15{enable-background:new    ;}
	.st16{fill:#1A1919;enable-background:new    ;}
	.st17{filter:url(#Adobe_OpacityMaskFilter);}
	.st18{mask:url(#_x37_c1b9927d1_00000139991274719833484260000008046529039579426743_);}
</style>
<polygon class="st0" points="2403,1177.6 2403,1082.9 2321.8,1166.2 2321.8,1319 2403,1319 2403,1200.1 "/>
<path class="st0" d="M2403,1056.1c-9.4-30.6-26.2-59.3-50.4-83.5c-79.3-79.2-207.8-79.2-287,0l-77.5,77.5v127.6l141.3-141.3
	c44-44,115.4-44,159.4,0c28.1,28.1,38.2,67.3,30.5,103.4L2403,1056.1L2403,1056.1z"/>
<polygon class="st0" points="2028.7,1319 2118.9,1319 2118.9,1072.6 2028.7,1162.8 "/>
<polygon class="st0" points="1713,1319 1803.2,1319 1803.2,1094.9 1713,1185.1 "/>
</svg>
