<?xml version="1.0" encoding="utf-8"?>
<!-- Generator: Adobe Illustrator 27.5.0, SVG Export Plug-In . SVG Version: 6.00 Build 0)  -->
<svg version="1.1" id="_ÎÓÈ_1" xmlns="http://www.w3.org/2000/svg" xmlns:xlink="http://www.w3.org/1999/xlink" x="0px" y="0px"
	 viewBox="0 0 3222.8 2116.2" style="enable-background:new 0 0 3222.8 2116.2;" xml:space="preserve">
<style type="text/css">
	.st0{fill:#ED733A;}
	.st1{fill:#9F5BE5;}
	.st2{fill:none;}
	.st3{fill:#FFFFFF;}
	.st4{fill:#2D2D2D;}
	.st5{fill:url(#SVGID_1_);}
	.st6{fill:url(#SVGID_00000055706910635243183290000015618085539247330950_);}
	.st7{fill:url(#SVGID_00000036959995470809549500000002057278850377687947_);}
	.st8{fill:url(#SVGID_00000145754779613764445900000009794506056224057731_);}
	.st9{fill:url(#SVGID_00000042018143266077608050000018102944906823613098_);}
	.st10{fill:url(#SVGID_00000080893710130757625030000017066134933882167170_);}
	.st11{fill:url(#SVGID_00000152227137993108991180000000105162673016871869_);}
	.st12{fill:url(#SVGID_00000147915880877096387300000005117078003474904463_);}
	.st13{fill:url(#SVGID_00000139253352944627226370000006205901097878202045_);}
	.st14{fill:url(#SVGID_00000127732027291140262780000001624114559082888098_);}
	.st15{enable-background:new    ;}
	.st16{fill:#1A1919;enable-background:new    ;}
	.st17{filter:url(#Adobe_OpacityMaskFilter);}
	.st18{mask:url(#_x37_c1b9927d1_00000139991274719833484260000008046529039579426743_);}
</style>
<path class="st1" d="M1803.2,947.3v-34.2H1713V1032l-18,18v0l-71.2,71.2l-64,64.1l-10.6,10.6c-20.4,20.4-48.6,33-79.7,33h-117.2
	l-90.2,90.2h207.4c51.1,0,97.7-18.9,133.4-50c3.5-3,6.9-6.2,10.1-9.5l64.4-64.4l17.6-17.6v0l141.3-141.3
	c40.8-40.8,104.9-43.8,149.2-9.1l64-64C1979.8,902.3,1878.4,897,1803.2,947.3L1803.2,947.3z"/>
<path class="st1" d="M1577.5,1003.3l90-89.8h-231.9c-66.5,0-120.5,54.1-120.5,120.5s54.1,120.5,120.5,120.5h70.3
	c15.8,0,28.9,12,30.6,27.3l7.2-7.2l59.9-59.9c-21.9-30.3-57.5-50-97.7-50h-70.3c-17,0-30.8-13.8-30.8-30.8s13.8-30.8,30.8-30.8l0,0
	H1577.5L1577.5,1003.3z"/>
</svg>
