<?xml version="1.0" encoding="utf-8"?>
<!-- Generator: Adobe Illustrator 27.5.0, SVG Export Plug-In . SVG Version: 6.00 Build 0)  -->
<svg version="1.1" id="_ÎÓÈ_1" xmlns="http://www.w3.org/2000/svg" xmlns:xlink="http://www.w3.org/1999/xlink" x="0px" y="0px"
	 viewBox="0 0 3222.8 2116.2" style="enable-background:new 0 0 3222.8 2116.2;" xml:space="preserve">
<style type="text/css">
	.st0{fill:#ED733A;}
	.st1{fill:#9F5BE5;}
	.st2{fill:none;}
	.st3{fill:#FFFFFF;}
	.st4{fill:#2D2D2D;}
	.st5{fill:url(#SVGID_1_);}
	.st6{fill:url(#SVGID_00000007414002149543283980000001568262273178741397_);}
	.st7{fill:url(#SVGID_00000122689230754990254440000005179694794201897131_);}
	.st8{fill:url(#SVGID_00000118359303118688208160000018218743052683859598_);}
	.st9{fill:url(#SVGID_00000062161341677781347490000014858093572952503443_);}
	.st10{fill:url(#SVGID_00000154388620485758120370000016980775185057450903_);}
	.st11{fill:url(#SVGID_00000143613511865709445410000010089871762743763894_);}
	.st12{fill:url(#SVGID_00000160159292132769838620000017166230909799334069_);}
	.st13{fill:url(#SVGID_00000083056964229478188380000012321257543496120232_);}
	.st14{fill:url(#SVGID_00000044896485215712723000000004326928133755246262_);}
	.st15{enable-background:new    ;}
	.st16{fill:#1A1919;enable-background:new    ;}
	.st17{filter:url(#Adobe_OpacityMaskFilter);}
	.st18{mask:url(#_x37_c1b9927d1_00000139991274719833484260000008046529039579426743_);}
</style>
<path class="st16" d="M829.3,928.9c-0.1-4.9-0.3-9.1-0.3-13.2c0.1-43.4,0.3-86.8,0.3-130.2c0.1-50.5,0.1-101,0.1-151.5
	c0-1.6-0.1-3.3-0.2-5.7c-1.7,1.5-2.6,2.3-3.5,3.1c-21.9,21-43.7,42-65.7,62.8c-2.3,2.2-2.5,4.4-2.5,7.2
	c-0.1,145.2-0.1,290.4-0.2,435.6c0,12.6,0,25.2,0.1,38.6c1.4-1.2,2.1-1.6,2.6-2.2c21.8-21.5,43.5-43.1,65.4-64.5
	c2.7-2.6,3.8-5.4,3.8-9.2c-0.1-22.4,0-44.8,0-67.2c0-2.6,0.7-4.4,2.6-6.2c10.7-10,21.2-20.3,31.9-30.3
	c21.3-20.1,42.8-40.1,64.1-60.3c16.7-15.9,33.2-31.9,49.8-47.9c23-22,46.1-44,69.1-66.1c3.5-3.3,6.9-6.7,10.8-10.5
	c-1.5-0.2-2.5-0.4-3.5-0.4c-33.3,0-66.6,0.1-99.9,0c-3.7,0-6.5,1-9.2,3.7c-37.7,37.7-75.6,75.3-113.4,112.9
	C831.1,927.8,830.5,928,829.3,928.9z"/>
<path class="st16" d="M1593.3,839.6c-14.7-12.8-31.5-21.7-50-26.9c-37-10.4-72.4-5.9-106.6,14.2c0-6.1,0-11.2,0-16.8
	c-23.1-0.1-45.6-0.7-68.7,0c0,3.6,0,6.7,0,9.9c0,21.3-0.1,42.6,0,63.9c0,4.2-1.2,7.4-4.3,10.4c-10.2,10.1-20.2,20.4-30.2,30.7
	c-30.3,31.5-60.5,63.1-90.7,94.7c-5,5.2-10.6,9.5-17.3,12.1c-7.6,3-15.5,4.1-23.6,4.1c-26.4,0-52.7,0.1-79.1-0.1
	c-4,0-6.8,1.2-9.5,4.1c-5.8,6.4-11.9,12.7-17.9,18.9c-13.5,13.9-27.2,27.7-40.7,41.6c-0.5,0.5-0.7,1.2-1.2,2.2
	c1.8,0.1,3,0.2,4.2,0.2c47.8,0.1,95.7,0.2,143.5,0.2c7.2,0,14.5-0.1,21.7-1c26.8-3.3,49.7-15,68.4-34.4c28-28.9,55.4-58.3,83.3-87.3
	c26-27.1,52.3-53.9,78.5-80.8c6.2-6.4,13.3-11.7,21.5-15.3c21.2-9.3,42.1-7.9,62.6,2.2c2.4,1.2,4.5,2.8,6.9,4.3
	C1560.6,873.8,1576.8,856.9,1593.3,839.6z"/>
<path class="st16" d="M1348,811.4c-0.2-0.4-0.5-0.7-0.7-1.1c-1-0.1-2.1-0.3-3.1-0.3c-51.3-0.2-102.6-0.3-153.9-0.4
	c-6.5,0-12.9,0.3-19.4,1.1c-22.5,2.6-42.6,11-58.2,27.7c-25.4,27.3-30.3,59.3-17.5,93.6c9.9,26.6,30.2,42.9,56.9,51.5
	c10.6,3.4,21.6,4.5,32.7,4.7c9.8,0.2,19.6-0.1,29.3,0.3c10.2,0.4,19,4.1,26,11.9c0.6,0.6,1.4,1.1,2.1,1.6
	c16-16.9,31.8-33.5,47.6-50.2c-0.8-0.9-1.1-1.4-1.6-1.9c-17.9-17.2-39.5-26.4-64.2-27.6c-12.3-0.6-24.6-0.3-36.9-0.3
	c-6.3,0-12.2-1.4-17.7-4.4c-10.3-5.6-13.2-18-10.5-25c2.5-6.2,6.9-10.5,12.8-13.3c5-2.3,10.2-3,15.7-3c30.3-0.1,60.6-0.2,90.9-0.2
	c2.7,0,4.7-0.8,6.6-2.7c13.4-13.6,26.9-27.1,40.5-40.5C1333,825.6,1340.6,818.5,1348,811.4z"/>
<path d="M1367.7,1085.3v12.7c0-0.7-0.1-1.4-0.1-2C1367.7,1092.4,1367.7,1088.8,1367.7,1085.3z"/>
<path class="st16" d="M1831.8,916c-0.2-1.4-0.3-3.3-0.6-5.1c-3.1-16-8.7-31-17.8-44.5c-24.5-36-59-55.4-102.2-58.5
	c-42.1-3-78.6,11.2-108.7,40.8c-16.1,15.8-31.2,32.6-46.9,48.7c-2.7,2.8-4,5.6-4,9.6c0.2,27.5,0.1,54.9,0.1,82.4c0,2,0,4,0,6.7
	c1.3-1.1,2.2-1.6,2.9-2.4c9.1-9.2,18.1-18.4,27.2-27.6c11.1-11.2,22.3-22.3,33.4-33.5c6-6,12-12,18-18.1c4.2-4.3,8.1-8.8,12.6-12.8
	c7.6-6.9,15.4-13.7,25.2-17.3c18.6-6.8,37.1-6.6,55.4,1.1c16.5,6.9,28.2,18.7,34.7,35.4c2.9,7.4,3.9,15.3,4,23.2
	c0.1,11.8,0.1,23.7,0.1,35.5c0,1.5,0,3,0,4.5c0.3,0.1,0.7,0.3,1,0.4C1788.3,962,1809.3,938.7,1831.8,916z"/>
<path class="st16" d="M852.3,1027.3c-2,1.8-4.7,4-7.2,6.4c-0.9,0.9-1.5,2.4-1.6,3.7c-0.3,3.5-0.2,6.9-0.3,10.4
	c-0.1,14.4,0,28.7-0.2,43.1c0,2.5,0.7,3.8,3,4.5c5.8,1.7,11.4,3.7,17.2,5.1c16,3.6,32.2,4.4,48.5,3.6c22.6-1,43.3-8,62.2-20.3
	c11.6-7.5,21.3-17.2,30.9-27.1c17.8-18.5,35.7-37.1,53.5-55.6c11.8-12.3,23.7-24.5,35.6-36.7c1-1,1.8-2.2,2.7-3.4
	c-17.8-22.6-24-48.1-20.6-76.6c-0.8,0.5-1.3,0.7-1.6,1c-24.5,25.1-49,50.1-73.4,75.2c-18.1,18.5-36.1,37.1-54.1,55.7
	c-4.4,4.5-9.2,8.6-14.8,11.6c-16.8,9.2-34.7,11.4-53.2,7.5C870.3,1033.6,861.9,1030.3,852.3,1027.3z"/>
<path class="st16" d="M1633.1,1102.5c0.1-1.2,0.3-1.9,0.3-2.7c0-55.4-0.1-110.8-0.1-166.1c0-0.1-0.2-0.2-0.3-0.3
	c-0.1-0.1-0.3-0.2-0.4-0.2c-0.2,0-0.3,0-0.4,0.1c-22.8,23.2-45.6,46.4-68.4,69.5c-1.4,1.5-1.9,3-1.9,5.1c0,29.5-0.1,59-0.2,88.5
	c0,2,0,4,0,6.2C1585.8,1102.5,1609.4,1102.5,1633.1,1102.5z"/>
<path class="st16" d="M1831.3,936c-0.4,0.3-0.8,0.4-1.1,0.7c-20.5,21.2-41,42.4-61.6,63.5c-2.4,2.5-3.5,4.9-3.4,8.3
	c0.1,29,0,58.1,0,87.1c0,2.3,0,4.6,0,6.8c6.3,1.2,62.2-0.2,66.6-1.5C1832.8,1093.3,1832.4,940.3,1831.3,936z"/>
<path d="M1235.4,1134.6c-1-0.5-2.3-1-3.6-1.6c-4.7-2-8.1-1.1-11.1,3c-2.6,3.5-5.1,7.2-7.7,10.7c-3.2,4.3-5.6,8.8-3.3,14.4
	c1.9,0.5,3.6,1.5,6.1,0.9c1.8-0.4,3.1-0.9,4.3-2.2c4.4-4.7,8.7-9.5,13.2-14.1C1236.4,1142.4,1237.7,1139.1,1235.4,1134.6z"/>
<path d="M906.4,1377.2c0.3,0.1,0.5,0.2,0.8,0.3c0.3-0.8,0.7-1.5,1-2.3c-0.2-0.1-0.5-0.2-0.7-0.3
	C907.1,1375.7,906.7,1376.4,906.4,1377.2z"/>
<path class="st16" d="M829.3,928.9c1.2-0.8,1.8-1.1,2.2-1.5c37.8-37.6,75.7-75.2,113.4-112.9c2.7-2.7,5.5-3.8,9.2-3.7
	c33.3,0.1,66.6,0,99.9,0c1,0,2,0.2,3.5,0.4c-3.9,3.8-7.3,7.2-10.8,10.5c-23,22-46.1,44-69.1,66.1c-16.6,15.9-33.1,32-49.8,47.9
	c-21.3,20.2-42.8,40.2-64.1,60.3c-10.7,10.1-21.2,20.3-31.9,30.3c-1.9,1.8-2.6,3.7-2.6,6.2c0,22.4-0.1,44.8,0,67.2
	c0,3.8-1.1,6.5-3.8,9.2c-21.9,21.4-43.6,43-65.4,64.5c-0.5,0.5-1.2,1-2.6,2.2c0-13.4-0.1-26-0.1-38.6c0.1-145.2,0.2-290.4,0.2-435.6
	c0-2.7,0.3-5,2.5-7.2c22-20.9,43.8-41.9,65.7-62.8c0.9-0.8,1.8-1.6,3.5-3.1c0.1,2.4,0.2,4.1,0.2,5.7c0,50.5,0,101-0.1,151.5
	c-0.1,43.4-0.2,86.8-0.3,130.2C829,919.8,829.2,924,829.3,928.9z"/>
<path class="st16" d="M1593.3,839.6c-16.5,17.2-32.8,34.1-49.2,51.2c-2.4-1.5-4.5-3.1-6.9-4.3c-20.5-10.1-41.4-11.6-62.6-2.2
	c-8.2,3.6-15.3,8.9-21.5,15.3c-26.2,26.9-52.5,53.7-78.5,80.8c-27.9,29-55.4,58.4-83.3,87.3c-18.7,19.4-41.6,31.1-68.4,34.4
	c-7.2,0.9-14.5,1-21.7,1c-47.8,0-95.7-0.1-143.5-0.2c-1.2,0-2.4-0.1-4.2-0.2c0.5-1,0.7-1.8,1.2-2.2c13.6-13.9,27.2-27.7,40.7-41.6
	c6.1-6.2,12.1-12.5,17.9-18.9c2.6-2.9,5.5-4.1,9.5-4.1c26.4,0.2,52.7,0.1,79.1,0.1c8.1,0,16.1-1.1,23.6-4.1
	c6.7-2.7,12.3-6.9,17.3-12.1c30.2-31.6,60.4-63.2,90.7-94.7c9.9-10.4,19.9-20.7,30.2-30.7c3.1-3,4.3-6.2,4.3-10.4
	c-0.1-21.3,0-42.6,0-63.9c0-3.1,0-6.3,0-9.9c23.1-0.6,45.5,0,68.7,0c0,5.6,0,10.7,0,16.8c34.1-20.1,69.5-24.6,106.6-14.2
	C1561.9,817.9,1578.6,826.8,1593.3,839.6z"/>
<path class="st16" d="M1348,811.4c-7.5,7.1-15,14.2-22.4,21.5c-13.6,13.4-27.1,26.9-40.5,40.5c-2,2-3.9,2.7-6.6,2.7
	c-30.3,0-60.6,0.2-90.9,0.2c-5.4,0-10.7,0.7-15.7,3c-5.9,2.8-10.3,7-12.8,13.3c-2.8,7,0.2,19.4,10.5,25c5.5,3,11.4,4.4,17.7,4.4
	c12.3,0.1,24.6-0.3,36.9,0.3c24.7,1.2,46.3,10.4,64.2,27.6c0.4,0.4,0.8,0.9,1.6,1.9c-15.8,16.7-31.6,33.3-47.6,50.2
	c-0.7-0.5-1.6-1-2.1-1.6c-6.9-7.8-15.8-11.4-26-11.9c-9.8-0.4-19.6-0.1-29.3-0.3c-11.1-0.2-22.1-1.3-32.7-4.7
	c-26.7-8.5-47-24.8-56.9-51.5c-12.8-34.4-7.9-66.3,17.5-93.6c15.5-16.7,35.7-25.1,58.2-27.7c6.4-0.7,12.9-1.1,19.4-1.1
	c51.3,0.1,102.6,0.2,153.9,0.4c1,0,2.1,0.2,3.1,0.3C1347.6,810.6,1347.8,811,1348,811.4z"/>
<path class="st16" d="M1432.9,1080C1432.9,1080,1432.9,1080,1432.9,1080l-0.1,4.9c-1.1,0.6-2.5,2.1-3,2.6c-1.3,1.2-2.3,2.7-3.3,4.1
	c-2.8,3.8-5.6,7.7-8.2,11.7h-50.6v-17.9c0.1-13.7,0.1-27.4,0.2-41.1c0.1-11.3,0.1-22.6,0.1-33.9c0-3,0.9-5.2,3.1-7.5
	c17-17.3,33.9-34.8,50.8-52.3c3.4-3.5,6.8-6.9,10.1-10.4c0.3,0.1,0.4,0.1,0.6,0.2c0.1,0.1,0.2,0.3,0.2,0.4
	C1432.9,987.1,1432.9,1033.4,1432.9,1080z"/>
<path class="st16" d="M1831.8,916c-22.5,22.6-43.6,46-65.6,68.4c-0.3-0.1-0.7-0.3-1-0.4c0-1.5,0-3,0-4.5c0-11.8,0-23.7-0.1-35.5
	c-0.1-7.9-1.1-15.8-4-23.2c-6.5-16.8-18.2-28.5-34.7-35.4c-18.3-7.7-36.8-7.9-55.4-1.1c-9.8,3.6-17.6,10.5-25.2,17.3
	c-4.4,4-8.4,8.6-12.6,12.8c-6,6.1-12,12.1-18,18.1c-11.1,11.2-22.3,22.3-33.4,33.5c-9.1,9.2-18.1,18.4-27.2,27.6
	c-0.7,0.7-1.6,1.3-2.9,2.4c0-2.7,0-4.7,0-6.7c0-27.5,0.1-54.9-0.1-82.4c0-4,1.2-6.7,4-9.6c15.7-16.2,30.8-33,46.9-48.7
	c30.1-29.5,66.5-43.8,108.7-40.8c43.1,3.1,77.7,22.5,102.2,58.5c9.2,13.5,14.7,28.5,17.8,44.5C1831.6,912.7,1831.7,914.6,1831.8,916
	z"/>
<path class="st16" d="M1095.5,959.2c-0.4-0.5-0.8-1.1-1.2-1.7c-0.4-0.5-0.7-1-1.1-1.5c0,0,0-0.1-0.1-0.1c-0.4-0.6-0.8-1.2-1.3-1.8
	c-0.1-0.2-0.2-0.3-0.3-0.5c-0.1-0.2-0.2-0.3-0.3-0.5c-0.1-0.2-0.3-0.4-0.4-0.7c-0.1-0.2-0.3-0.4-0.4-0.6c0,0-0.1-0.1-0.1-0.1
	c-0.3-0.5-0.6-0.9-0.9-1.4c-0.4-0.6-0.7-1.2-1.1-1.8c-0.3-0.5-0.6-1-0.8-1.5c-0.2-0.3-0.4-0.6-0.5-1c-0.3-0.5-0.5-1-0.8-1.5
	c-0.3-0.5-0.5-1-0.8-1.6c-0.2-0.5-0.5-1-0.7-1.5c-0.2-0.4-0.4-0.7-0.5-1.1c-0.1-0.1-0.1-0.3-0.2-0.4c-0.2-0.4-0.4-0.8-0.6-1.3
	c-0.2-0.5-0.4-0.9-0.6-1.4c-0.2-0.5-0.4-1.1-0.7-1.7c-0.2-0.4-0.3-0.8-0.4-1.2c-0.1-0.2-0.1-0.3-0.2-0.5c-0.3-0.7-0.5-1.5-0.8-2.2
	c-0.2-0.6-0.4-1.2-0.6-1.9c-0.1-0.2-0.1-0.4-0.2-0.7c-0.1-0.4-0.2-0.8-0.4-1.2c-0.1-0.3-0.2-0.6-0.3-0.9c0-0.1,0-0.1-0.1-0.2
	c-0.3-1.1-0.6-2.2-0.9-3.3c-0.3-1.4-0.7-2.8-0.9-4.2c-0.1-0.7-0.3-1.4-0.4-2.1c-0.2-1.1-0.4-2.3-0.5-3.4c0-0.3-0.1-0.6-0.1-0.8
	c0,0,0,0,0-0.1c0-0.3-0.1-0.6-0.1-0.9c-0.1-0.6-0.1-1.2-0.2-1.8c0-0.4-0.1-0.8-0.1-1.2c0-0.1,0-0.1,0-0.2c0,0,0-0.1,0-0.1
	c0-0.3-0.1-0.6-0.1-0.9c0-0.3,0-0.6-0.1-0.8c0-0.3,0-0.7-0.1-1c0-0.4,0-0.8-0.1-1.2c0-0.2,0-0.3,0-0.5c0,0,0-0.1,0-0.1
	c0-0.1,0-0.2,0-0.2c0-0.4,0-0.8,0-1.1c0-0.6,0-1.2,0-1.8c0-0.7,0-1.4,0-2.1c0-4.7,0.3-9.6,0.9-14.5c-0.8,0.5-1.2,0.7-1.6,1
	c-24.5,25-49,50.1-73.4,75.2v0c-9,9.3-18.1,18.5-27.1,27.8c-9,9.3-18,18.6-27,27.8c-4.4,4.5-9.2,8.6-14.8,11.6
	c-16.8,9.2-34.7,11.4-53.2,7.5c-0.5-0.1-1.1-0.2-1.6-0.4c-0.4-0.1-0.8-0.2-1.2-0.3c-0.3-0.1-0.6-0.1-0.8-0.2
	c-0.4-0.1-0.8-0.2-1.2-0.3c-0.5-0.1-1.1-0.3-1.6-0.4c-0.5-0.1-1.1-0.3-1.6-0.5c-0.5-0.2-1.1-0.3-1.6-0.5c-0.4-0.1-0.7-0.2-1.1-0.4
	c-0.7-0.2-1.4-0.5-2.2-0.7c-0.1,0-0.1,0-0.2-0.1c-1.6-0.5-3.2-1.1-4.8-1.6c-1.1-0.4-2.3-0.8-3.4-1.1c-0.4-0.1-0.9-0.3-1.3-0.4
	c-0.7-0.2-1.5-0.5-2.2-0.7c-0.6-0.2-1.2-0.4-1.8-0.6c-0.3,0.2-0.5,0.5-0.8,0.7c-0.1,0.1-0.3,0.2-0.4,0.4c-0.3,0.2-0.6,0.5-0.9,0.7
	c-0.3,0.3-0.6,0.5-0.9,0.8c-0.1,0.1-0.3,0.3-0.5,0.4c-0.3,0.3-0.6,0.5-0.9,0.8c-0.3,0.3-0.6,0.6-0.9,0.8c-0.5,0.5-1,1-1.6,1.5
	c-0.1,0.1-0.2,0.2-0.3,0.3v0c-0.9,0.9-1.5,2.4-1.6,3.7c-0.3,3.5-0.2,6.9-0.3,10.4c0,7.2,0,14.4-0.1,21.5c0,3.6,0,7.2,0,10.8
	c0,1.8,0,3.6,0,5.4c0,1.8,0,3.6-0.1,5.4c0,0.4,0,0.7,0,1c0,0.1,0,0.3,0,0.4c0,0.1,0,0.2,0.1,0.4c0,0.1,0.1,0.2,0.1,0.3
	c0,0.1,0.1,0.2,0.1,0.3c0,0,0,0.1,0,0.1c0,0.1,0.1,0.1,0.1,0.2c0,0.1,0.1,0.2,0.2,0.3c0.1,0.1,0.1,0.2,0.2,0.3
	c0.1,0.1,0.1,0.2,0.2,0.2c0.1,0.1,0.1,0.1,0.2,0.2c0,0,0,0,0.1,0.1c0.1,0.1,0.1,0.1,0.2,0.2c0.1,0,0.2,0.1,0.3,0.1
	c0.1,0,0.1,0.1,0.2,0.1c0.3,0.1,0.6,0.3,1,0.4c5.8,1.7,11.4,3.7,17.2,5.1c16,3.6,32.2,4.4,48.5,3.6c22.6-1,43.3-8,62.3-20.3
	c0.7-0.5,1.4-0.9,2.2-1.4c0.6-0.4,1.2-0.8,1.8-1.3c0.3-0.2,0.5-0.4,0.8-0.6c1-0.8,2.1-1.5,3.1-2.3c0.1-0.1,0.2-0.1,0.2-0.2
	c0.2-0.2,0.4-0.3,0.7-0.5c0.5-0.4,1.1-0.9,1.6-1.3c0.7-0.5,1.3-1.1,2-1.6c0.6-0.5,1.2-1,1.8-1.6c0.7-0.6,1.4-1.2,2-1.8
	c1.2-1.1,2.5-2.3,3.7-3.4c1.3-1.2,2.5-2.4,3.8-3.7c2.4-2.4,4.8-4.9,7.2-7.4c17.8-18.5,35.7-37.1,53.5-55.6
	c11.8-12.3,23.7-24.5,35.6-36.7c0.2-0.3,0.5-0.5,0.7-0.8c0.1-0.1,0.2-0.3,0.3-0.4c0.2-0.3,0.4-0.6,0.7-0.9c0.3-0.4,0.7-0.9,1.1-1.4
	C1096.4,960.4,1096,959.8,1095.5,959.2z"/>
<path class="st16" d="M1633.1,1102.5c-23.8,0-47.3,0-71.4,0c0-2.2,0-4.2,0-6.2c0.1-29.5,0.2-59,0.2-88.5c0-2.1,0.5-3.6,1.9-5.1
	c22.8-23.2,45.6-46.3,68.4-69.5c0.1-0.1,0.3-0.1,0.4-0.1c0.1,0.1,0.3,0.2,0.4,0.2c0.1,0.1,0.3,0.2,0.3,0.3
	c0,55.4,0.1,110.8,0.1,166.1C1633.4,1100.6,1633.2,1101.3,1633.1,1102.5z"/>
<path class="st16" d="M1831.3,936c1.1,4.4,1.5,157.4,0.4,164.9c-4.3,1.3-60.2,2.7-66.6,1.5c0-2.2,0-4.5,0-6.8c0-29,0.1-58.1,0-87.1
	c0-3.4,1-5.8,3.4-8.3c20.6-21.1,41.1-42.3,61.6-63.5C1830.5,936.4,1830.9,936.2,1831.3,936z"/>
<path class="st0" d="M1235.4,1134.6c2.3,4.5,1,7.8-2.1,11c-4.5,4.6-8.8,9.4-13.2,14.1c-1.2,1.2-2.5,1.7-4.3,2.2
	c-2.5,0.6-4.2-0.4-6.1-0.9c-2.3-5.6,0-10.1,3.3-14.4c2.6-3.5,5.1-7.1,7.7-10.7c3-4,6.4-4.9,11.1-3
	C1233.1,1133.6,1234.3,1134.2,1235.4,1134.6z"/>
<path class="st3" d="M906.4,1377.2c0.3-0.8,0.7-1.5,1-2.3c0.2,0.1,0.5,0.2,0.7,0.3c-0.3,0.8-0.7,1.5-1,2.3
	C906.9,1377.4,906.6,1377.3,906.4,1377.2z"/>
<g>
	<path class="st0" d="M1046.6,1108c-0.4-3.6-2.9-5.4-6.2-7c-4.4-2.1-8.2-2.2-11.6,1.1c-12.2,11.5-24.6,22.7-36.4,34.5
		c-24.7,24.6-49.1,49.5-73.7,74.3c-3.5,3.5-7.4,6.7-10.6,9.6c0.1-0.2,0.5-1.1,1-2c3.9-7.6,7.8-15.1,11.7-22.7
		c7.7-15,15.4-30,23.1-45c1.7-3.4,3.7-6.6,5.1-10.1c2.6-6.3,2.3-14.3-6.3-16.9c-2.4-0.7-4.8-0.2-6.8-0.9c-3.4-1.2-5.5,0.1-7.6,2.1
		c-9.7,9.3-19.7,18.2-28.7,28.1c-16.8,18.2-33.1,36.9-49.3,55.6c-8,9.2-15.4,18.8-22.9,28.3c-2.6,3.3-4.7,7.1-7.3,10.4
		c-3,3.8-6.5,7.3-9.3,11.2c-11.1,16.1-22.1,32.3-33,48.5c-0.4,0.6-0.6,1.4-1,2.6c1.4-0.8,2.2-1.3,3-1.8c0.2,0.2,0.4,0.4,0.6,0.6
		c-3.7,5-7.4,10.1-11.1,15.1c1.1,2.1,2.1,4.1,3.2,6.2c2-1.3,3.5-2.4,5.1-3.4c0.2,0.2,0.3,0.4,0.4,0.6c-0.7,1.3-1.4,2.5-2.1,3.8
		c12.7-9.8,24.3-20.6,32.3-34.7c-1.2,0.6-2.1,1.5-3.1,2.3c-0.9,0.8-1.4,2.4-4,2.2c6.9-11.9,14.8-22.3,22.7-32.7
		c0.3,0.2,0.6,0.4,0.8,0.6c-4.6,6.5-9.2,13.1-13.8,19.6c0.3,0.2,0.6,0.4,0.9,0.7c1.2-1.4,2.4-2.8,3.5-4.2
		c4.2-5.5,8.3-11.1,12.6-16.6c8-10.2,16-20.4,24.2-30.3c10.2-12.2,20.6-24.3,31.1-36.3c5.7-6.5,11.6-12.9,17.5-19.3
		c0.8-0.8,1.8-1.4,3.6-2.7c0,2.1,0.3,3.4-0.1,4.4c-0.8,2.2-1.8,4.4-2.8,6.5c-6.7,14.1-13.6,28.1-19.9,42.4
		c-4.2,9.5-7.6,19.4-11.2,29.1c-2,5.5,1.5,9.1,4.8,12.7c1.7,1.8,3.8,1.8,6.1,1.4c3.3-0.5,6-2,8.1-4.4c2.1-2.4,3.9-4.9,6-7.3
		c10.2-11.4,20.1-23.1,30.7-34.1c23.6-24.6,47.5-48.8,71.3-73.2c0.3-0.3,0.7-0.3,1.9-0.9c-1.7,3.3-3.1,5.9-4.5,8.5
		c-8.4,16.4-17.1,32.7-25.2,49.3c-8.6,17.6-16.8,35.3-24.8,53.2c-7.5,16.7-14.7,33.5-21.7,50.4c-5.7,13.7-10.9,27.6-16.1,41.5
		c-1.8,4.6-3.9,9.2-3.5,14.6c1.4-3.2,2.8-6.4,4.2-9.6c2.6,0.6,3.2,2,2.3,4.2c-0.6,1.4-1,2.8-1.4,4.3c0.4,0.2,0.7,0.3,1.1,0.5
		c0.8-1.6,1.7-3.1,2.4-4.7c6.7-15.1,13.3-30.3,20.1-45.4c3.9-8.8,7.9-17.5,11.9-26.2c0.9-1.9,2-3.6,3.1-5.4c0.3,0.2,0.6,0.3,0.9,0.5
		c-1.2,2.7-2.5,5.3-3.6,8c-1,2.6-1.9,5.4-2.7,8.1c-0.8,2.6-2.6,5.1-2,8.1c3.3-6.6,6-13.5,9.3-20c13.3-26.5,26.8-52.9,40.3-79.3
		c12.1-23.6,24.8-46.8,38.5-69.5c5.4-9.1,10.8-18.1,16.7-26.9C1046.9,1115.9,1047,1112,1046.6,1108z M843.1,1244.4
		c-0.4-0.3-0.7-0.5-1.1-0.8c10.9-13.5,21.8-27,32.7-40.5c0.3,0.2,0.5,0.4,0.8,0.6C865.2,1217.7,854.5,1231.3,843.1,1244.4z
		 M946.9,1267.6c-0.1,0.4-0.1,0.7-0.2,1.1c0,0.2-0.1,0.4-0.1,0.5c0,0.2-0.1,0.4-0.1,0.5c-0.1,0.5-0.3,1-0.5,1.4
		c-8.5,17.8-16,35.9-22.9,54.3c-0.2,0.6-0.5,1.2-0.8,1.7c-0.1,0.2-0.3,0.5-0.4,0.7c-0.1,0.2-0.2,0.3-0.3,0.5
		c-0.1,0.2-0.2,0.3-0.3,0.5c-0.6,1-1.2,2-1.8,3c0.1-0.4,0.2-0.9,0.2-1.3c0,0,0,0,0,0c0-0.3,0.1-0.5,0.1-0.8c0-0.3,0.1-0.5,0.2-0.8
		c0-0.1,0-0.2,0.1-0.2c0-0.1,0-0.2,0.1-0.3c0-0.1,0-0.2,0.1-0.3c0.1-0.2,0.1-0.3,0.2-0.5c8-19.1,16.1-38.3,24.2-57.3
		c0.5-1.1,1.5-2,2.3-3C946.9,1267.4,946.9,1267.5,946.9,1267.6z M950.1,1285.7c-0.2-0.1-0.4-0.1-0.6-0.2c0.4-1.1,0.9-2.2,1.3-3.3
		c0.2,0.1,0.5,0.3,0.7,0.4C951.1,1283.6,950.6,1284.7,950.1,1285.7z M961.3,1263.3c-0.1,0.3-0.2,0.6-0.4,0.9
		c-0.2,0.4-0.3,0.8-0.5,1.2c-0.2,0.4-0.3,0.7-0.5,1.1c-0.2,0.4-0.4,0.7-0.6,1c-0.1,0.2-0.2,0.3-0.3,0.4c-0.1,0.1-0.2,0.3-0.3,0.4
		c-0.1,0.1-0.2,0.3-0.3,0.4c-0.1,0.1-0.2,0.2-0.3,0.4c-0.1,0.2-0.3,0.4-0.4,0.6c-0.1,0.1-0.2,0.2-0.3,0.3c-0.1,0.1-0.2,0.3-0.4,0.4
		c-0.1,0.1-0.2,0.3-0.4,0.4c-0.1,0.1-0.3,0.3-0.4,0.4c1.1-2.5,2.1-4.9,3.2-7.3c1.1-2.6,2.3-5.1,3.4-7.7c0.3,0.2,0.7,0.3,1,0.5
		C963,1258.8,962.2,1261.1,961.3,1263.3z"/>
	<path class="st0" d="M1215.7,1109c-1.1,0.8-2,1.4-3.2,2.3c0.2-1.7,0.3-2.8,0.4-3.7c-4.7-0.4-9-0.8-13.7-1.1
		c-18.6,24.2-34.7,50.3-50.7,76.2c-0.7-0.1-0.9,0-1-0.1c-0.9-0.8-1.8-1.7-2.7-2.6c-5.2-4.8-11.1-6.6-17.8-3.7
		c-3.3,1.4-6.6,3.1-9.6,5.2c-13.4,9.2-24.2,21-34.1,33.8c-1.6,2.1-3.5,4.1-5.7,5.5c-9.1,5.7-18.2,11.3-27.5,16.7
		c-11.4,6.7-23,13.2-34.6,19.5c-4.2,2.3-8.6,4.4-14.1,5c1.6-9.5,6.9-16.6,11.2-24.7c7.8,2.2,14.2-0.7,20.4-3.8
		c10.1-5,19.1-11.7,27.1-19.6c5.9-5.7,11.4-11.9,14.8-19.5c2.7-6.1-2.5-16.1-9.1-17c-5-0.7-10-1-14.8,1.7c-3,1.7-6.3,3-9.2,4.8
		c-15.3,9.6-27.8,22.2-38,37c-1.3,1.9-2.3,4.1-5.2,4.3c-0.8,0-2.3,2-2.1,2.6c1.1,3.3-1.1,5.4-2.4,7.8c-4.2,7.3-7.3,15-9.4,23.2
		c-0.7,2.9-0.7,5.8,0.9,8.3c3.2,5.1,6.5,10.3,13.6,10.1c2.6-0.1,5.4-0.2,7.8-1c3.7-1.2,7.5-2.6,10.8-4.6
		c9.1-5.6,18.1-11.4,26.9-17.6c7.1-5,13.8-10.5,20.7-15.7c0.8-0.6,1.7-1,3.2-1.9c-2.2,5.1-3.9,9.6-6,14c-2.2,4.7-1.4,8.7,1.6,12.8
		c3.5,4.9,8.4,6.7,13.9,4.5c2-0.8,4.1-1.7,5.9-3c14-9.8,26.2-21.7,37.7-34.3c0.7-0.8,1.6-1.5,2.4-2.3c0.2,1.2,0,1.9-0.4,2.6
		c-5.5,10-9.4,20.7-13.1,31.4c-0.5,1.4-1.1,3.8-0.5,4.3c1.9,1.5,1.1,3,0.8,4.7c-0.5,3.1-1,6.2-1.5,9.3c1.5-1.6,2.7-3.4,3.1-5.3
		c0.7-2.7,3.7-1.5,4.7-3.3c0.1-0.1,0.2-0.3,0.3-0.4c4.9-6.4,9.6-12.8,13.1-20.1c10.5-21.9,22.5-43,35.2-63.7
		c11.7-18.9,24.4-37.2,36.5-55.8c4.5-6.9,8.7-13.9,13-20.9C1215.8,1110.4,1215.7,1109.8,1215.7,1109z M1060.2,1192.3
		c-8.6,14-20.8,23.8-35.7,30.4C1033.9,1209.7,1045,1198.7,1060.2,1192.3z M1081.8,1249.4c0.1-1.2,0.1-1.8,0.3-2.2l42.3-50.3
		c2.9-2.3,6.3-4.1,9.6-6c2.8-1.6,5.5-1.2,7.8,2C1123.4,1213.4,1105.1,1233.6,1081.8,1249.4z"/>
	<path class="st0" d="M1837.8,1165.6c-5.6-0.7-11,0.2-16.3,1.3c-0.4,0.1-1,0.4-1.1,0.7c-0.8,2.8-3.2,2.6-5.3,3
		c-2.6,0.4-5.3,0.9-7.9,1.3c-1.2,0.2-2.8,0.4-3.6-0.2c-1.7-1.2-3.3-0.7-5-0.4c-12.8,2.6-25.7,4.9-38.5,7.7
		c-17.2,3.9-34.4,8.1-51.1,14c-3.6,1.3-7.5,2.1-11.3,3.2c0-0.8-0.1-1.2,0-1.4c2.3-3.9,5-7.7,6.9-11.8c2.6-5.6,7-8.4,12.8-10
		c5.3-1.5,10.7-3.3,15.2-6.3c3.6-2.4,8.9-2.4,10.8-7.3c0.2-0.5,1.3-0.8,2-1.1c2.2-1,4.4-1.9,6.5-2.9c1.3-0.6,2.5-1.4,4.6-2.5
		c-2.1-0.4-3.6-0.3-3.8-0.8c-1.1-2.3-2.8-1.9-4.6-1.5c-6,1.4-12,2.6-18,4c-2.4,0.5-4.7,1.3-7.1,1.9c-0.2-0.3-0.4-0.6-0.5-0.9
		c2.7-4,5.4-8,8-12.2c1.1-1.7,2.4-2.7,4.3-3.3c8.2-2.7,16.4-5.5,24.7-8.2c2.4-0.8,4.8-1.4,5.5-5.1c-2.5-0.1-4.7-0.3-7.2-0.4
		c3.3-1,6.3-1.9,9.2-2.8c2.8-0.9,6-0.6,9.3-3.5c-2.8,0.3-4.5,0.6-6.2,0.7c-1.2,0.1-2.7,0.4-3.7-0.1c-3.8-2-7.6-1.4-11.5-0.7
		c-9.8,1.7-19.5,3.5-29.3,5.4c-0.9,0.2-1.7,0.8-2.5,1.2c-2.4,1.1-4.8,2.3-7.3,3.3c-4.3,1.8-9,2.8-12.2,6.1c-0.1,2.5-0.2,4.6-0.3,7.2
		c1.8,1.2,3.8,2.5,6.1,4c-3.5,5.5-6.8,10.8-10.4,16c-0.8,1.2-2.4,2.1-3.8,2.5c-3.2,1.1-5.9,2.4-4.9,6.2c-7.6,3.2-14.9,6.1-22.1,9.4
		c-2.8,1.3-4.8,1.6-7.1-0.7c-1.2-1.2-2.9-1.9-4.5-2.5c-7.3-2.5-14.7-4.9-22-7.3c-1-0.3-1.9-0.9-2.8-1.3c4.2-7.2,24.5-21.8,31-22.2
		c-1,1.7-1.9,3.3-2.8,5c-0.9,1.6-1.7,3.2-2.6,4.7c2-0.4,3.7-2.1,4.5-1.7c2.7,1.3,3.6-0.9,5.1-2c1.3-1,2.5-1.9,3.7-3
		c3.9-3.2,7.8-6.4,11.6-9.8c5.1-4.6,5.2-8.6,0.7-13.9c-0.6-0.7-1.2-1.5-1.8-2.2c-2-2.5-3.6-2.9-6.5-1.7c-10.7,4.3-21,9.5-30.6,16
		c-8.2,5.6-16.1,11.6-23.2,18.7c-8.3,8.2-3.1,22.3,6.5,24.7c1.2,0.3,2.4,0.7,3.7,1c4.4,1.2,8.9,2.3,13.3,3.5
		c1.9,0.5,3.7,1.4,6.2,2.5c-1.5,1.1-2.3,1.8-3.2,2.3c-5.4,3-10.8,5.9-16.2,8.9c-11.3,6.2-22.4,12.9-32.7,20.8
		c-1.6,1.3-3.4,2.5-4.5,4.1c-1,1.5-1,3.7-1.4,5.7c1.9,0.3,3,0.6,4.1,0.8c0.2,1.1,0.3,1.9,0.6,3.4c7.3-3,14.2-5.6,21-8.5
		c3.9-1.7,7.6-3.9,11.6-5.4c11.5-4.5,22-10.9,32.1-17.9c3.3-2.3,5.4-5.4,6-9.2c0.4-2.3,1.5-3.2,3.3-4c4-1.9,7.9-4,11.8-6
		c0.7-0.3,1.5-0.5,2.5-0.8c-3,6.2-5.6,12.1-8.7,17.8c-1.3,2.4-1.4,4.7-0.2,6.7c1.6,2.7,3.5,5.3,5.8,7.3c2,1.8,4.6,2,7.5,0.9
		c9.7-3.7,19.5-7.3,29.4-10.5c22.9-7.2,45.6-14.9,68.9-20.5c1.2-0.3,2.2-1,3.6-1.5c-0.9-0.7-1.2-1-2.1-1.7
		c6.2-1.6,11.8-3.4,17.5-4.5c6.3-1.2,12.8-1.8,18.9-4.1c3.1-1.2,6.2-2.4,9.4-3.1c4.6-1.1,9.3-1.7,13.9-2.6c2.4-0.5,4.7-1,7.1-1.6
		c-0.1-0.4-0.2-0.8-0.2-1.2c-9.2,1.1-18.4,2.2-27.6,3.3c0-0.1,0-0.1,0-0.2C1831.8,1167,1834.8,1166.3,1837.8,1165.6z"/>
	<path class="st0" d="M1263.6,1229.9c-0.3-1.3-0.1-2.2,0.3-3c1.7-3.2,3.4-6.4,5.3-9.5c8.3-13,16.7-26,25.1-39c2.4-3.7,2.7-5.6,0-8.4
		c-1.6-1.6-4.3-2.3-6.6-3.1c-1.8-0.6-3.3,0.1-4.5,1.6c-1.7,2.2-3.7,4.3-6.1,7c-0.9-1.2-1.3-1.9-1.9-2.5c-6.3-6.3-12.2-7.3-20.1-3.1
		c-3.9,2.1-7.7,4.4-11.1,7.1c-9.8,8-18.7,17-26.5,27c-1.4,1.8-3.2,3.5-5.1,4.9c-11.6,8.2-23.2,16.4-34.8,24.5c-0.3,0.2-0.8,0-1.3,0
		c0.3-0.7,0.4-1.1,0.6-1.5c8-12.1,16-24.2,24-36.3c2.2-3.3,4.6-6.4,6.6-9.8c2.3-4,0.3-8.8-4-10.3c-4.8-1.8-7.2-1.3-10.2,2.9
		c-6.3,8.9-12.5,17.8-18.6,26.8c-8.2,12.3-15.8,25.1-22.4,38.4c-2.7,5.3-2.1,9.5,1.5,13.8c2.7,3.1,5.9,4.2,9.6,2.1
		c2.3-1.3,4.4-3,6.4-4.8c8.1-7.3,16-14.7,24.1-21.9c2.4-2.2,5-4.1,7.5-6.1c-1,4-2.5,7.6-3.9,11.2c-1.2,3.2-1.6,6.7,0.2,9.6
		c4.1,6.7,9.9,10.5,18.6,4.9c10.7-6.9,19.2-16.3,28.2-25.1c1.1-1,2-2.2,3-3.3c0.1,1.8-0.5,3.2-1,4.6c-1.2,3.4-2.5,6.8-3.4,10.3
		c-1,4.1,0.8,7.5,4,9.9c3.2,2.4,6.7,2.4,10.1,0.1c2.5-1.7,5.1-3.2,7.4-5.1c8.5-7,17-14.1,25.4-21.2c0.7-0.6,1.2-1.4,1.8-2.1
		c1.3-1.5,2.5-3.2,4-4.5c2.2-1.8,4.6-3.3,6.8-5.1c0.8-0.6,2-1.7,1.9-2.4c-0.3-2.3,1.3-3.1,2.6-4.1c2.7-2.1,5.6-4.1,8.4-6.2
		c2-1.4,2-1.4,3.6-4.1C1300.4,1206.3,1282,1218.1,1263.6,1229.9z M1215.1,1236.1c3.1-5,5.9-10.2,9.4-14.9
		c7.5-10.1,15.6-19.8,25.4-27.8c4.4-3.6,9-6.8,13.7-10c1.9-1.3,4.2-2.2,6.5-0.4C1266.2,1192.3,1226.7,1231,1215.1,1236.1z"/>
	<path class="st0" d="M1583.6,1200.3c0.5-4.1,2.1-6.8,3.6-9.4c7-12.2,14-24.3,21.1-36.4c1.3-2.2,2.9-4.2,3.9-6.5
		c1.7-3.6,0.4-7-3.2-9.2c-3.4-2.1-6-1.8-8.8,1.1c-1.5,1.6-3.1,3.2-4.3,5.1c-4.9,7.6-11.1,14.1-17.3,20.7c-3.4,3.7-7.2,7.1-10.5,10.9
		c-9,10.4-19.2,19.6-29.6,28.6c-0.5,0.4-1.2,0.5-1.7,0.7c-0.2-0.3-0.5-0.5-0.7-0.8c5.6-9.8,11.2-19.7,16.9-29.5
		c4.1-7.1,8.4-14.1,12.3-21.3c2-3.6,0.3-7.5-3.4-9.5c-4-2.2-7.3-1.7-9.7,2.1c-8.3,12.8-17.4,25.1-23.9,39c-3,6.4-6.3,12.7-9,19.3
		c-1.4,3.3-2.4,6.9-2.5,10.5c-0.1,8.5,7.9,14.3,16.1,10.2c2.2-1.1,4.3-2.7,6.2-4.3c11-8.9,20.1-19.6,29.5-30
		c0.6-0.7,1.4-1.3,2.1-1.9c-0.1,2.2-0.9,3.9-1.5,5.6c-1.5,4-3,8-4.2,12.1c-1.1,3.9,1,10,3.6,11.6c3.9,2.5,7.6,2.1,12.2-1.4
		c1.7-1.3,3.4-2.8,5-4.4c5.7-5.6,11.5-11.3,17.1-17c5.3-5.3,10.5-10.7,15.8-16.1c0.2-0.2,0.1-0.6,0.1-1c-2.5-1.4-4.5-0.2-6.5,1.2
		c-4.3,2.9-8.6,5.9-12.8,8.9C1594.4,1192.8,1589.4,1196.3,1583.6,1200.3z"/>
	<path class="st0" d="M1412.6,1268.1c2.5-0.1,5-0.1,7.5-0.4c21.2-2.3,42.3-4.7,63.5-7.1c7.2-0.8,14.4-2.1,21.6-2.1
		c6.5,0,12.8-1,19.2-1.8c2.2-0.3,4.5-0.9,6.6-0.4c6.9,1.7,13.3,0.2,19.8-1.8c1.8-0.6,4-0.4,6-0.3c1.4,0,2.8,0.5,4.2,0.4
		c6.7-0.6,13.4-1.3,20.2-2.1c1.1-0.1,2.1-0.6,3.2-0.8c4.1-0.8,8.3-1.9,12.4-2.4c6.9-0.8,13.8-1,20.7-1.6c16-1.3,32.1-2.6,48.1-4
		c7.2-0.6,14.4-1.5,21.6-2.3c2-0.2,4-0.7,6.1-0.9c9.2-1,18.4-2,27.7-3c-6.6-0.3-13.1-0.1-19.7,0.3c-13.4,0.8-26.7,1.8-40.1,2.5
		c-8.5,0.5-17,0.2-25.5,0.9c-15.1,1.2-30.1,2.9-45.2,4.2c-15.7,1.4-31.4,2.7-47.1,4c-5.7,0.5-11.3,0.9-17,1.5
		c-13.9,1.5-27.9,3.2-41.8,4.7c-9.6,1-19.2,1.5-28.7,2.6c-10.9,1.3-21.8,3.2-32.7,4.8C1419.2,1263.7,1415.6,1264.8,1412.6,1268.1z"
		/>
	<path class="st0" d="M1420.1,1260.9c1.6,0,3,0.1,4.4,0c11.9-1,23.8-2.1,35.7-3.2c1.7-0.2,3.3-0.9,5-1.3
		C1456.7,1255.5,1424.8,1259,1420.1,1260.9z"/>
	<path class="st0" d="M1341.4,1269.8c11.6-0.9,22.4-2.1,33-4.1C1368.9,1264.9,1344.9,1267.9,1341.4,1269.8z"/>
	<path class="st0" d="M917,1362c0.3,0.1,0.6,0.3,0.9,0.4c1.5-3.3,3-6.5,4.5-9.8c-0.3-0.1-0.6-0.3-0.8-0.4
		C919.4,1355.3,917.5,1358.3,917,1362z"/>
	<path class="st0" d="M1520.7,1150.6c-5.7-3.6-11.5-6.1-18-2.4c-3.2,1.9-6.1,4.3-9.2,6.5c-1.3,0.9-2.6,2-4,2.2
		c-6.8,1.3-13.7,2.3-20.5,3.3c-0.7,0.1-1.4-0.1-2.5-0.1c0.7-1.3,1-2.1,1.5-2.9c7.8-12.8,15.6-25.6,23.6-38.2
		c9-14.3,18.4-28.3,27.5-42.5c1.2-1.8,2.2-3.9,2.7-6c1.9-7.6,0.7-10.1-5.1-12.6c-3.1-1.3-7-0.7-9,2c-13.1,18-25.1,36.7-36.4,55.9
		c-8.9,15.1-17.5,30.4-26.2,45.6c-1.1,2-2.4,3.4-4.9,3.9c-12.5,2.7-24.9,5.7-37.4,8.5c-2.1,0.5-4.1,0.9-7,1.6
		c0.9-1.7,1.3-2.6,1.8-3.4c13.8-21.2,27.6-42.3,41.3-63.4c1.9-2.9,3.7-5.9,5-9.1c2.1-5.1,0.6-13-7.4-14.5c-0.8-0.1-1.6-0.3-2.7-0.5
		c-0.2,0-0.6,0.1-1,0.3c-1.1,0.6-2.5,2.1-3,2.6c-1.3,1.2-2.3,2.7-3.3,4.1c-2.8,3.8-5.6,7.7-8.2,11.7c-3.4,5.1-6.7,10.4-9.9,15.6
		c-12.1,20.1-24.2,40.3-36.2,60.5c-1.2,2.1-2.7,3.3-4.9,4c-8.3,2.4-16.7,4.8-24.9,7.5c-5,1.7-9.9,3.9-14.9,5.9
		c0.5,0.8,0.6,1.1,0.8,1.2c2.5,2.2,6.1,3.6,7,7c0.7,2.5,2.1,3.1,4,2.9c4.2-0.4,8.4-1,12.6-1.7c1.7-0.3,3.3-0.8,5.5-1.3
		c-4.4,8.9-8.5,17-12.4,25.2c-3.9,8.1-7.9,16.1-10.3,24.8c2.7-1.8,2.5-5.8,5.9-7c0.1,0.4,0.3,0.8,0.2,1c-2.2,6.1-4.5,12.1-6.7,18.2
		c-0.7,1.8-2,2.5-4,2.7c-6.6,0.5-13.2,1-19.7,1.9c-16.9,2.2-33.8,4.5-50.7,6.8c-35.5,4.8-71,9.6-106.3,15.8
		c-31.6,5.5-63.1,11-94.3,18.5c-24.1,5.8-48,12.3-71.9,18.5c-1.7,0.4-4.5,0-3.9,3.4c0,0.3-0.8,0.9-1.4,1.1c-4,1.4-8,2.9-12,4.2
		c-3.9,1.3-7.8,2.3-11.7,3.5c-0.2,0.1-0.3,0.5-0.8,1.5c3.3-0.6,6.2-1.1,9-1.7c2.6-0.5,5.3-2.5,7.9,0.2c0.5,0.5,1.8,0.2,2.7,0.2
		c1.3,0,2.6,0,3.9,0c0,0.2,0.1,0.4,0.2,0.6c-2.2,1-4.4,1.9-7.6,3.3c3.5,0.2,5.8,0.3,9,0.4c-3.8,3-8.3,2-11,5.2
		c2.2-0.1,4.3-0.4,6.3-1.1c3.2-1.1,6.3-3,9.6-3.7c7.5-1.7,15.1-3.2,22.8-4.4c12.2-1.8,24.1-5.1,36-8.1c13.4-3.4,26.8-7.1,40.4-10.1
		c16.7-3.8,33.6-7.2,50.4-10.6c18.7-3.8,37.4-7.4,56.1-11.2c8.9-1.8,18.1-2.7,26.5-6.6c2.7-1.2,5.7-1.6,9.1-0.6
		c2.6,0.8,6.6,1.2,8.7-2.5c0.2-0.4,1.1-0.7,1.7-0.7c6.5,0,12.7-3.9,19.4-1.3c0.5,0.2,1.2-0.1,1.9-0.2c4.5-0.6,9-1.2,13.6-1.9
		c12.5-1.9,24.9-3.9,37.4-5.8c0.2,0,0.5-0.3,0.9-0.5c-0.8-0.3-1.6-0.6-2.8-1c5.1-0.9,9.6-1.7,14.1-2.4c1.8-0.3,4-1.7,5,1.3
		c0.1,0.2,0.9,0.3,1.3,0.2c2.8-0.5,5.6-1,9.3-1.7c-1.9-0.4-2.8-0.6-4.1-0.9c1.4-0.4,2.3-0.7,3.2-0.8c3.1-0.5,5.9-1.6,9.4-0.1
		c2.4,1,6.2-0.3,8.8-1.7c1.3-0.7,2.4-1.6,3.9-1.8c7-1.3,14-2.5,20.9-3.9c1-0.2,1.9-1,2.9-1.5c-0.1-0.5-0.3-0.9-0.4-1.4
		c-8.1-0.5-16.1,1.6-24.1,2.2c-8.2,0.6-16.4,1.6-24.6,2.4c0-0.4-0.1-0.9-0.1-1.3c1.1-0.4,2.2-0.7,3.8-1.2c-1-0.7-1.6-1.1-2.6-1.8
		c4.7-4.9,5.9-11.9,11.9-16.8c-0.1,2.3-0.2,3.6-0.3,4.9c2-1.3,3.3-3,4.4-4.8c8.4-14.8,17-29.5,24.9-44.6c3.7-7.1,8.7-11.2,16.5-13
		c9.3-2.2,18.4-5.5,27.6-8.2c3.7-1.1,7.5-1.9,11.8-3c-0.7,1.5-1.1,2.5-1.6,3.4c-2.2,4.2-4.5,8.3-6.6,12.6
		c-14.9,30.1-30.5,59.9-43.4,90.9c-2.2,5.3-5.2,10.2-5.5,16.3c3.6-7.6,7.2-15.2,10.8-22.8c-2.2,7.5-5.3,14.7-8.1,21.9
		c-2.8,7.2-5.6,14.4-7.6,21.9c1.1-0.8,1.8-1.8,2.3-2.9c3.7-7.3,7.4-14.6,11.2-21.9c1.4-2.7,1.5-2.6,4.5-2.9
		c0.8-6.3,25.3-55.2,30.5-60.5c-3.1,6.5-6.6,12.8-9.7,19.3c-3.2,6.5-7.1,12.7-9.2,19.7c1.8-1.8,3.2-3.8,4.3-6
		c3-5.8,5.6-11.6,8.7-17.3c13.6-24.7,27.3-49.4,40.9-74.1c1.3-2.4,2.8-4,5.6-4.5c2.9-0.6,5.8-1.7,8.6-2.5c3.3-0.9,6.5-1.6,9.8-2.4
		c0,1.4-0.5,1.9-0.9,2.6c-4.3,6.4-8.9,12.6-12.8,19.3c-4.5,7.8-8.1,16-10.1,24.9c-1.5,7,1,12.6,6.6,16.5c5.2,3.6,10.8,2.8,16-0.4
		c3.3-2.1,6.6-4.4,9.5-7c13.1-11.7,24.5-24.9,33.2-40.3c3.2-5.7,5.9-11.5,7.1-17.9C1528.4,1161.1,1527.5,1155,1520.7,1150.6z
		 M1301.9,1283.9c0-0.1,0-0.3,0-0.4c0,0,0,0,0,0v0c0.8-0.1,1.7-0.1,2.6-0.2c0,0.2,0,0.4,0,0.6H1301.9z M1295.7,1276.1
		c11.6-2.1,23.2-4.5,35.1-4C1319.3,1274.6,1307.5,1275.4,1295.7,1276.1z M1358.2,1235.8c-0.3-0.2-0.6-0.3-0.8-0.5
		c1.1-2,2.3-4.1,3.4-6.1c0.3,0.2,0.6,0.3,0.9,0.5C1360.4,1231.7,1359.3,1233.7,1358.2,1235.8z M1388.6,1280.4
		c-0.6-0.2-0.8-0.2-0.9-0.3c-0.1-0.1-0.2-0.2-0.2-0.4c0-0.3-0.2-0.7,0-0.9c6.1-12.7,12.2-25.4,18.3-38.1c0.2,0.2,0.5,0.3,0.7,0.5
		C1400.6,1254.3,1394.6,1267.4,1388.6,1280.4z M1515.4,1164.5c-1.3,6.3-4.1,11.9-7.5,17.2c-8.7,13.6-18.4,26.3-31.4,36.2
		c-2,1.5-4.1,2.7-6.5,4.2c-0.3-7.2,13.1-32.6,20.6-39.2c0.4,2.3,0.8,4.3,1.1,6.3c0.3,0,0.6,0.1,0.8,0.1c0.7-2.3,1.6-4.6,2.2-7
		c1.1-4.2,3-7.9,5.8-11.2c2.5-3,5-6.1,7.5-9.1c1.7-2,3.6-3.5,6.6-3.5C1516.5,1160.5,1515.8,1162.6,1515.4,1164.5z"/>
	<path class="st0" d="M1046.6,1108c-0.4-3.6-2.9-5.4-6.2-7c-4.4-2.1-8.2-2.2-11.6,1.1c-12.2,11.5-24.6,22.7-36.4,34.5
		c-24.7,24.6-49.1,49.5-73.7,74.3c-3.5,3.5-7.4,6.7-10.6,9.6c0.1-0.2,0.5-1.1,1-2c3.9-7.6,7.8-15.1,11.7-22.7
		c7.7-15,15.4-30,23.1-45c1.7-3.4,3.7-6.6,5.1-10.1c2.6-6.3,2.3-14.3-6.3-16.9c-2.4-0.7-4.8-0.2-6.8-0.9c-3.4-1.2-5.5,0.1-7.6,2.1
		c-9.7,9.3-19.7,18.2-28.7,28.1c-16.8,18.2-33.1,36.9-49.3,55.6c-8,9.2-15.4,18.8-22.9,28.3c-2.6,3.3-4.7,7.1-7.3,10.4
		c-3,3.8-6.5,7.3-9.3,11.2c-11.1,16.1-22.1,32.3-33,48.5c-0.4,0.6-0.6,1.4-1,2.6c1.4-0.8,2.2-1.3,3-1.8c0.2,0.2,0.4,0.4,0.6,0.6
		c-3.7,5-7.4,10.1-11.1,15.1c1.1,2.1,2.1,4.1,3.2,6.2c2-1.3,3.5-2.4,5.1-3.4c0.2,0.2,0.3,0.4,0.4,0.6c-0.7,1.3-1.4,2.5-2.1,3.8
		c12.7-9.8,24.3-20.6,32.3-34.7c-1.2,0.6-2.1,1.5-3.1,2.3c-0.9,0.8-1.4,2.4-4,2.2c6.9-11.9,14.8-22.3,22.7-32.7
		c0.3,0.2,0.6,0.4,0.8,0.6c-4.6,6.5-9.2,13.1-13.8,19.6c0.3,0.2,0.6,0.4,0.9,0.7c1.2-1.4,2.4-2.8,3.5-4.2
		c4.2-5.5,8.3-11.1,12.6-16.6c8-10.2,16-20.4,24.2-30.3c10.2-12.2,20.6-24.3,31.1-36.3c5.7-6.5,11.6-12.9,17.5-19.3
		c0.8-0.8,1.8-1.4,3.6-2.7c0,2.1,0.3,3.4-0.1,4.4c-0.8,2.2-1.8,4.4-2.8,6.5c-6.7,14.1-13.6,28.1-19.9,42.4
		c-4.2,9.5-7.6,19.4-11.2,29.1c-2,5.5,1.5,9.1,4.8,12.7c1.7,1.8,3.8,1.8,6.1,1.4c3.3-0.5,6-2,8.1-4.4c2.1-2.4,3.9-4.9,6-7.3
		c10.2-11.4,20.1-23.1,30.7-34.1c23.6-24.6,47.5-48.8,71.3-73.2c0.3-0.3,0.7-0.3,1.9-0.9c-1.7,3.3-3.1,5.9-4.5,8.5
		c-8.4,16.4-17.1,32.7-25.2,49.3c-8.6,17.6-16.8,35.3-24.8,53.2c-7.5,16.7-14.7,33.5-21.7,50.4c-5.7,13.7-10.9,27.6-16.1,41.5
		c-1.8,4.6-3.9,9.2-3.5,14.6c1.4-3.2,2.8-6.4,4.2-9.6c2.6,0.6,3.2,2,2.3,4.2c-0.6,1.4-1,2.8-1.4,4.3c0.4,0.2,0.7,0.3,1.1,0.5
		c0.8-1.6,1.7-3.1,2.4-4.7c6.7-15.1,13.3-30.3,20.1-45.4c3.9-8.8,7.9-17.5,11.9-26.2c0.9-1.9,2-3.6,3.1-5.4c0.3,0.2,0.6,0.3,0.9,0.5
		c-1.2,2.7-2.5,5.3-3.6,8c-1,2.6-1.9,5.4-2.7,8.1c-0.8,2.6-2.6,5.1-2,8.1c3.3-6.6,6-13.5,9.3-20c13.3-26.5,26.8-52.9,40.3-79.3
		c12.1-23.6,24.8-46.8,38.5-69.5c5.4-9.1,10.8-18.1,16.7-26.9C1046.9,1115.9,1047,1112,1046.6,1108z M843.1,1244.4
		c-0.4-0.3-0.7-0.5-1.1-0.8c10.9-13.5,21.8-27,32.7-40.5c0.3,0.2,0.5,0.4,0.8,0.6C865.2,1217.7,854.5,1231.3,843.1,1244.4z
		 M919.1,1334.1c0,0.5-0.1,1-0.1,1.5c-0.4-0.1-0.8-0.2-1.2-0.3c0.5-0.9,1-1.8,1.4-2.7C919.2,1333.1,919.2,1333.6,919.1,1334.1z
		 M946.9,1267.6c-0.1,0.4-0.1,0.7-0.2,1.1c0,0.2-0.1,0.4-0.1,0.5c0,0.2-0.1,0.4-0.1,0.5c-0.1,0.5-0.3,1-0.5,1.4
		c-8.5,17.8-16,35.9-22.9,54.3c-0.2,0.6-0.5,1.2-0.8,1.7c-0.1,0.2-0.3,0.5-0.4,0.7c-0.1,0.2-0.2,0.3-0.3,0.5
		c-0.1,0.2-0.2,0.3-0.3,0.5c-0.6,1-1.2,2-1.8,3c0,0.1-0.1,0.3-0.1,0.4c0,0.1-0.1,0.2-0.1,0.3l0,0c0-0.1,0-0.2,0-0.4
		c0.1-0.1,0.1-0.2,0.2-0.3c0,0,0,0,0,0c0,0,0,0,0,0c0.1-0.4,0.2-0.9,0.2-1.3c0,0,0,0,0,0c0-0.3,0.1-0.5,0.1-0.8
		c0-0.3,0.1-0.5,0.2-0.8c0-0.1,0-0.2,0.1-0.2c0-0.1,0-0.2,0.1-0.3c0-0.1,0-0.2,0.1-0.3c0.1-0.2,0.1-0.3,0.2-0.5
		c8-19.1,16.1-38.3,24.2-57.3c0.5-1.1,1.5-2,2.3-3C946.9,1267.4,946.9,1267.5,946.9,1267.6z M947.1,1267.1c0,0.1-0.1,0.1-0.2,0.2
		l0,0C946.9,1267.2,947,1267.1,947.1,1267.1c0-0.2,0-0.3,0.1-0.4C947.2,1266.8,947.1,1267,947.1,1267.1z M950.1,1285.7
		c-0.2-0.1-0.4-0.1-0.6-0.2c0.4-1.1,0.9-2.2,1.3-3.3c0.2,0.1,0.5,0.3,0.7,0.4C951.1,1283.6,950.6,1284.7,950.1,1285.7z
		 M961.3,1263.3c-0.1,0.3-0.2,0.6-0.4,0.9c-0.2,0.4-0.3,0.8-0.5,1.2c-0.2,0.4-0.3,0.7-0.5,1.1c-0.2,0.4-0.4,0.7-0.6,1
		c-0.1,0.2-0.2,0.3-0.3,0.4c-0.1,0.1-0.2,0.3-0.3,0.4c-0.1,0.1-0.2,0.3-0.3,0.4c-0.1,0.1-0.2,0.2-0.3,0.4c-0.1,0.2-0.3,0.4-0.4,0.6
		c-0.1,0.1-0.2,0.2-0.3,0.3c-0.1,0.1-0.2,0.3-0.4,0.4c-0.1,0.1-0.2,0.3-0.4,0.4c-0.1,0.1-0.3,0.3-0.4,0.4c-0.1,0.1-0.1,0.2-0.2,0.4
		c0,0.1-0.1,0.2-0.1,0.3c0,0,0,0,0,0c0,0,0,0,0,0c0-0.1,0-0.2,0-0.3c0.1-0.1,0.2-0.1,0.2-0.2c0,0,0,0,0,0c1.1-2.5,2.1-4.9,3.2-7.3
		c1.1-2.6,2.3-5.1,3.4-7.7c0.3,0.2,0.7,0.3,1,0.5C963,1258.8,962.2,1261.1,961.3,1263.3z"/>
	<path class="st0" d="M1215.7,1109c-1.1,0.8-2,1.4-3.2,2.3c0.2-1.7,0.3-2.8,0.4-3.7c-4.7-0.4-9-0.8-13.7-1.1
		c-18.6,24.2-34.7,50.3-50.7,76.2c-0.7-0.1-0.9,0-1-0.1c-0.9-0.8-1.8-1.7-2.7-2.6c-5.2-4.8-11.1-6.6-17.8-3.7
		c-3.3,1.4-6.6,3.1-9.6,5.2c-13.4,9.2-24.2,21-34.1,33.8c-1.6,2.1-3.5,4.1-5.7,5.5c-9.1,5.7-18.2,11.3-27.5,16.7
		c-11.4,6.7-23,13.2-34.6,19.5c-4.2,2.3-8.6,4.4-14.1,5c1.6-9.5,6.9-16.6,11.2-24.7c7.8,2.2,14.2-0.7,20.4-3.8
		c10.1-5,19.1-11.7,27.1-19.6c5.9-5.7,11.4-11.9,14.8-19.5c2.7-6.1-2.5-16.1-9.1-17c-5-0.7-10-1-14.8,1.7c-3,1.7-6.3,3-9.2,4.8
		c-15.3,9.6-27.8,22.2-38,37c-1.3,1.9-2.3,4.1-5.2,4.3c-0.8,0-2.3,2-2.1,2.6c1.1,3.3-1.1,5.4-2.4,7.8c-4.2,7.3-7.3,15-9.4,23.2
		c-0.7,2.9-0.7,5.8,0.9,8.3c3.2,5.1,6.5,10.3,13.6,10.1c2.6-0.1,5.4-0.2,7.8-1c3.7-1.2,7.5-2.6,10.8-4.6
		c9.1-5.6,18.1-11.4,26.9-17.6c7.1-5,13.8-10.5,20.7-15.7c0.8-0.6,1.7-1,3.2-1.9c-2.2,5.1-3.9,9.6-6,14c-2.2,4.7-1.4,8.7,1.6,12.8
		c3.5,4.9,8.4,6.7,13.9,4.5c2-0.8,4.1-1.7,5.9-3c14-9.8,26.2-21.7,37.7-34.3c0.7-0.8,1.6-1.5,2.4-2.3c0.2,1.2,0,1.9-0.4,2.6
		c-5.5,10-9.4,20.7-13.1,31.4c-0.5,1.4-1.1,3.8-0.5,4.3c1.9,1.5,1.1,3,0.8,4.7c-0.5,3.1-1,6.2-1.5,9.3c1.5-1.6,2.7-3.4,3.1-5.3
		c0.7-2.7,3.7-1.5,4.7-3.3c0.1-0.1,0.2-0.3,0.3-0.4c4.9-6.4,9.6-12.8,13.1-20.1c10.5-21.9,22.5-43,35.2-63.7
		c11.7-18.9,24.4-37.2,36.5-55.8c4.5-6.9,8.7-13.9,13-20.9C1215.8,1110.4,1215.7,1109.8,1215.7,1109z M1060.2,1192.3
		c-8.6,14-20.8,23.8-35.7,30.4C1033.9,1209.7,1045,1198.7,1060.2,1192.3z M1081.8,1249.4c0.1-1.2,0.1-1.8,0.3-2.2l42.3-50.3
		c2.9-2.3,6.3-4.1,9.6-6c2.8-1.6,5.5-1.2,7.8,2C1123.4,1213.4,1105.1,1233.6,1081.8,1249.4z"/>
	<path class="st0" d="M1856.5,1164.7c-9.2,1.1-18.4,2.2-27.6,3.3c0-0.1,0-0.1,0-0.2c3-0.7,5.9-1.4,8.9-2.2h0c0,0,0,0,0,0
		c-2.4-0.3-4.7-0.3-7-0.1c-0.1,0-0.2,0-0.3,0c-1.2,0.1-2.3,0.2-3.5,0.4c-0.4,0.1-0.8,0.1-1.2,0.2c-0.6,0.1-1.3,0.2-1.9,0.3
		c-0.8,0.1-1.6,0.3-2.4,0.5c-0.1,0-0.1,0-0.2,0.1c-0.1,0-0.2,0.1-0.3,0.1c-0.1,0.1-0.2,0.1-0.3,0.2c-0.1,0.1-0.2,0.1-0.2,0.2
		c0,0,0,0.1-0.1,0.1c0,0.1-0.1,0.3-0.1,0.4c0,0.1-0.1,0.2-0.1,0.3c-0.1,0.1-0.1,0.2-0.2,0.4c-0.1,0.1-0.1,0.2-0.2,0.3
		c-0.1,0.1-0.1,0.1-0.2,0.2c0,0,0,0-0.1,0.1c-0.1,0.1-0.1,0.1-0.2,0.2c-0.1,0.1-0.2,0.2-0.3,0.2c-0.1,0.1-0.2,0.1-0.3,0.2
		c-0.8,0.4-1.8,0.5-2.8,0.6c-0.2,0-0.5,0.1-0.7,0.1c-2.6,0.4-5.3,0.9-7.9,1.3c-1.2,0.2-2.8,0.4-3.6-0.2c-0.1-0.1-0.2-0.1-0.3-0.2
		c-0.2-0.1-0.4-0.2-0.6-0.3c-0.1,0-0.2-0.1-0.3-0.1c-0.2-0.1-0.4-0.1-0.6-0.1c-0.6-0.1-1.2,0-1.8,0.1c-0.3,0.1-0.6,0.1-0.9,0.2
		c-0.1,0-0.2,0-0.3,0.1c-3.2,0.6-6.4,1.3-9.6,1.9c-4.8,0.9-9.6,1.9-14.5,2.8c-1.4,0.3-2.9,0.6-4.3,0.9c-0.3,0.1-0.6,0.1-0.9,0.2
		c-1.3,0.3-2.5,0.5-3.8,0.8c-0.3,0.1-0.7,0.1-1,0.2c-1.5,0.3-2.9,0.6-4.4,1c-17.2,3.9-34.4,8.1-51.1,14c-1.8,0.6-3.7,1.2-5.6,1.7
		c-0.7,0.2-1.4,0.4-2.1,0.6c-0.7,0.2-1.4,0.4-2.1,0.6c-0.5,0.1-1,0.3-1.4,0.4h0c0-0.3,0-0.6,0-0.8c0-0.3,0-0.5,0-0.6
		c0.6-1,1.2-2,1.8-2.9c0.6-1,1.2-1.9,1.8-2.9c0.4-0.7,0.9-1.5,1.3-2.2c0.4-0.7,0.8-1.5,1.2-2.2c0.3-0.5,0.5-1,0.8-1.5
		c0.1-0.2,0.2-0.4,0.3-0.6c0.1-0.2,0.2-0.4,0.3-0.6c0.1-0.2,0.2-0.4,0.3-0.6c0,0,0-0.1,0.1-0.1c0.1-0.1,0.1-0.2,0.2-0.4
		c0-0.1,0.1-0.2,0.1-0.2c0.1-0.2,0.2-0.3,0.3-0.4c0.1-0.2,0.3-0.4,0.5-0.6c0.2-0.2,0.3-0.4,0.5-0.6c0.2-0.3,0.5-0.5,0.7-0.7
		c0.1-0.1,0.2-0.2,0.4-0.4c0.2-0.2,0.5-0.5,0.7-0.7c0.3-0.2,0.5-0.4,0.8-0.6c0.2-0.2,0.5-0.3,0.7-0.5c0,0,0.1,0,0.1-0.1
		c0,0,0.1-0.1,0.1-0.1c0.2-0.1,0.4-0.3,0.7-0.4c0,0,0,0,0,0c0,0,0.1-0.1,0.1-0.1c0.6-0.3,1.1-0.6,1.7-0.9c0.3-0.1,0.6-0.3,1-0.4
		c0.3-0.1,0.7-0.3,1-0.4c0.3-0.1,0.5-0.2,0.8-0.3c0.4-0.1,0.9-0.3,1.3-0.4c0.3-0.1,0.7-0.2,1-0.3c0.5-0.1,1-0.3,1.5-0.4
		c1-0.3,2-0.6,3-1c0.5-0.2,1-0.3,1.5-0.5c0.4-0.1,0.7-0.3,1.1-0.4c0.4-0.1,0.7-0.3,1.1-0.4c0.2-0.1,0.3-0.1,0.5-0.2
		c0.2-0.1,0.3-0.1,0.5-0.2c0,0,0,0,0,0c0,0,0,0,0.1,0c0,0,0,0,0.1,0c0.3-0.1,0.5-0.2,0.8-0.4c0.3-0.1,0.6-0.3,0.8-0.4c0,0,0,0,0.1,0
		c0.2-0.1,0.4-0.2,0.6-0.3c0.3-0.1,0.5-0.3,0.8-0.4c0.2-0.1,0.4-0.2,0.6-0.4c0.1-0.1,0.3-0.2,0.4-0.3c0.3-0.2,0.6-0.4,0.9-0.5
		c0.2-0.1,0.4-0.3,0.6-0.4c0,0,0,0,0.1,0c0,0,0,0,0,0c0.2-0.1,0.4-0.2,0.5-0.3h0c0,0,0,0,0,0c0.1-0.1,0.3-0.1,0.4-0.2
		c0.3-0.1,0.6-0.3,0.9-0.4c0.1,0,0.2-0.1,0.3-0.1c0.5-0.2,1-0.4,1.6-0.6c0.2-0.1,0.3-0.1,0.5-0.2c0.3-0.1,0.6-0.2,0.8-0.4
		c0.2-0.1,0.3-0.1,0.4-0.2c0.1-0.1,0.3-0.1,0.4-0.2c0.1-0.1,0.3-0.2,0.4-0.2c0.2-0.1,0.5-0.3,0.7-0.4c0,0,0,0,0,0
		c0.2-0.1,0.4-0.3,0.7-0.5c0.1-0.1,0.2-0.2,0.4-0.3c0.1-0.1,0.2-0.2,0.3-0.3c0.1-0.1,0.2-0.2,0.3-0.4c0.1-0.1,0.2-0.2,0.3-0.4
		c0.1-0.1,0.2-0.2,0.2-0.3c0,0,0,0,0,0c0,0,0,0,0,0c0.1-0.1,0.2-0.3,0.3-0.4c0.1-0.2,0.2-0.3,0.2-0.5c0-0.1,0.1-0.1,0.1-0.2
		c0-0.1,0.1-0.2,0.1-0.3c0.2-0.5,1.3-0.8,2.1-1.1c2.2-1,4.4-1.9,6.5-2.9c1.3-0.6,2.5-1.4,4.6-2.5c-2.1-0.4-3.6-0.3-3.8-0.8
		c-1.1-2.3-2.8-1.9-4.6-1.5c-6,1.3-12,2.6-18,4c-2.4,0.5-4.7,1.3-7.1,1.9c-0.2-0.3-0.4-0.6-0.5-0.8c0.7-1,1.3-2,2-3
		c0.3-0.5,0.7-1,1-1.5c0.8-1.3,1.7-2.5,2.5-3.8c0.4-0.6,0.8-1.3,1.2-1.9c0.4-0.6,0.8-1.3,1.2-1.9c0.1-0.2,0.3-0.4,0.4-0.6
		c0.1-0.1,0.1-0.2,0.2-0.3c0.1-0.1,0.1-0.2,0.2-0.3c0.1-0.1,0.1-0.2,0.2-0.3c0.1-0.1,0.1-0.1,0.2-0.2c0.1-0.1,0.3-0.2,0.4-0.4
		c0.1-0.1,0.2-0.1,0.3-0.2c0.1-0.1,0.3-0.2,0.5-0.3c0.2-0.1,0.3-0.2,0.5-0.3c0.3-0.1,0.5-0.3,0.8-0.4c0.2-0.1,0.4-0.1,0.5-0.2
		c0,0,0,0,0.1,0c8.3-2.7,16.4-5.5,24.7-8.2c0.2-0.1,0.4-0.1,0.6-0.2c0.2-0.1,0.4-0.1,0.6-0.2c0.1,0,0.3-0.1,0.4-0.2
		c0.1,0,0.2-0.1,0.3-0.1c0.1-0.1,0.3-0.1,0.4-0.2c0.1,0,0.2-0.1,0.3-0.2c0.1-0.1,0.3-0.1,0.4-0.2c0.4-0.2,0.7-0.5,1-0.8
		c0.1-0.1,0.2-0.2,0.3-0.3c0,0,0.1-0.1,0.1-0.1c0-0.1,0.1-0.1,0.1-0.2c0.1-0.1,0.1-0.2,0.2-0.3c0.1-0.1,0.1-0.3,0.2-0.4
		c0.1-0.2,0.2-0.3,0.2-0.5s0.1-0.4,0.2-0.6c0.1-0.2,0.1-0.4,0.1-0.7c-2.5-0.1-4.7-0.3-7.2-0.4c3.3-1,6.3-1.9,9.2-2.8
		c0.4-0.1,0.7-0.2,1.1-0.3c0.3-0.1,0.7-0.1,1-0.2c0,0,0,0,0.1,0c0.2,0,0.4-0.1,0.6-0.1c0.3-0.1,0.6-0.1,1-0.2c0.2,0,0.4-0.1,0.5-0.1
		c0.2,0,0.4-0.1,0.6-0.1s0.4-0.1,0.6-0.2c0.1,0,0.2-0.1,0.3-0.1c0.1,0,0.3-0.1,0.4-0.2c0.1-0.1,0.3-0.1,0.4-0.2
		c0.1-0.1,0.3-0.1,0.4-0.2c0.1-0.1,0.3-0.2,0.4-0.2h0c0.1-0.1,0.3-0.2,0.4-0.3c0.1-0.1,0.3-0.2,0.5-0.3c0.1-0.1,0.3-0.2,0.5-0.4
		c0.2-0.1,0.3-0.3,0.5-0.4l0,0c-0.9,0.1-1.6,0.2-2.3,0.3c0,0-0.1,0-0.1,0c-0.2,0-0.5,0.1-0.7,0.1c-0.4,0.1-0.9,0.1-1.3,0.1
		c-0.4,0-0.8,0.1-1.2,0.1c-0.2,0-0.4,0-0.6,0c-1.2,0.1-2.7,0.4-3.7-0.1c-2.4-1.3-4.8-1.5-7.3-1.3c-0.5,0-0.9,0.1-1.4,0.1
		c-0.2,0-0.5,0.1-0.7,0.1c-0.7,0.1-1.4,0.2-2.1,0.3c-2.4,0.4-4.9,0.9-7.3,1.3c-2.4,0.4-4.9,0.9-7.3,1.3c-2.4,0.4-4.9,0.9-7.3,1.4
		c-2.4,0.5-4.9,0.9-7.3,1.4h0c-0.9,0.2-1.7,0.8-2.5,1.2c-0.6,0.3-1.2,0.6-1.8,0.8c-0.6,0.3-1.2,0.6-1.8,0.8h0
		c-0.6,0.3-1.2,0.6-1.8,0.8c-0.6,0.3-1.2,0.5-1.8,0.8c-4.3,1.8-9,2.8-12.2,6.1c0,0.3,0,0.6,0,0.9c0,0.3,0,0.5,0,0.8
		c0,0.9-0.1,1.8-0.1,2.7c0,0.9-0.1,1.8-0.1,2.7c0,0,0,0,0,0c0.5,0.3,0.9,0.6,1.4,0.9c0.3,0.2,0.7,0.4,1,0.7c0.4,0.3,0.8,0.5,1.2,0.8
		c0.8,0.5,1.6,1,2.4,1.6c-3.5,5.5-6.8,10.8-10.4,16v0c-0.1,0.1-0.2,0.2-0.2,0.3c-0.1,0.1-0.2,0.2-0.3,0.3c-0.1,0.1-0.2,0.2-0.3,0.3
		c0,0-0.1,0-0.1,0.1c-0.1,0.1-0.2,0.1-0.3,0.2c-0.1,0.1-0.3,0.2-0.4,0.3c-0.1,0.1-0.3,0.2-0.4,0.3c-0.1,0.1-0.3,0.2-0.4,0.2
		c-0.1,0.1-0.2,0.1-0.3,0.2c0,0,0,0-0.1,0c0,0-0.1,0-0.1,0c0,0,0,0-0.1,0c-0.1,0-0.1,0-0.2,0.1c0,0-0.1,0-0.2,0.1
		c-0.1,0.1-0.3,0.1-0.4,0.2c-0.3,0.1-0.7,0.2-1,0.4c-0.2,0.1-0.3,0.1-0.5,0.2c-0.2,0.1-0.3,0.1-0.5,0.2c-0.1,0-0.2,0.1-0.3,0.1
		c-0.2,0.1-0.3,0.2-0.4,0.2c0,0,0,0,0,0c-0.1,0.1-0.2,0.1-0.3,0.2c0,0-0.1,0-0.1,0.1c-0.1,0.1-0.3,0.2-0.4,0.3
		c-0.1,0.1-0.3,0.2-0.4,0.3c-0.1,0.1-0.2,0.2-0.3,0.3c0,0,0,0,0,0c-0.2,0.2-0.3,0.4-0.5,0.7c-0.1,0.1-0.1,0.3-0.2,0.4
		c0,0.1-0.1,0.3-0.1,0.4c-0.2,0.7-0.2,1.5,0.1,2.4c-7.6,3.2-14.9,6.1-22.1,9.4c-0.3,0.1-0.5,0.2-0.8,0.3c-0.2,0.1-0.4,0.2-0.6,0.3
		c-0.2,0.1-0.3,0.1-0.4,0.1c-0.1,0-0.3,0.1-0.4,0.1c0,0-0.1,0-0.1,0c-0.1,0-0.2,0-0.3,0.1c-0.1,0-0.2,0-0.3,0c-0.1,0-0.2,0-0.3,0
		h-0.1c-0.2,0-0.4,0-0.5,0c-0.1,0-0.2,0-0.3,0c-0.1,0-0.2,0-0.3,0c-0.2,0-0.5-0.1-0.7-0.2c-0.2-0.1-0.5-0.2-0.7-0.4
		c-0.2-0.1-0.4-0.3-0.7-0.5c-0.1-0.1-0.2-0.2-0.3-0.3c0,0-0.1-0.1-0.1-0.1c-0.1-0.1-0.2-0.1-0.2-0.2c-1.2-1.2-2.9-1.9-4.5-2.5
		c-7.3-2.5-14.7-4.9-22-7.3c-1-0.3-1.9-0.9-2.8-1.3c4.2-7.2,24.5-21.8,31-22.2c-0.5,0.9-1,1.7-1.4,2.5c-0.5,0.8-0.9,1.6-1.4,2.5
		c-0.9,1.6-1.7,3.2-2.6,4.7c0.1,0,0.2,0,0.3-0.1c0.2-0.1,0.4-0.1,0.6-0.2c0,0,0,0,0,0c0.2-0.1,0.4-0.2,0.6-0.3
		c0.1,0,0.2-0.1,0.3-0.1c0.2-0.1,0.4-0.2,0.6-0.3c0.3-0.2,0.5-0.3,0.8-0.4c0.1-0.1,0.2-0.1,0.3-0.2c0,0,0,0,0,0
		c0.1,0,0.1-0.1,0.2-0.1c0.1,0,0.2-0.1,0.2-0.1c0,0,0.1,0,0.1,0c0,0,0.1,0,0.1,0c0.1,0,0.2,0,0.3,0c0.1,0,0.2,0.1,0.3,0.1
		c0.1,0,0.2,0.1,0.3,0.1c0.1,0,0.1,0,0.2,0c0,0,0.1,0,0.1,0c0.1,0,0.2,0.1,0.4,0.1c0.2,0,0.4,0,0.6,0c0.1,0,0.2,0,0.3,0
		c0.1,0,0.1,0,0.2,0c0,0,0,0,0,0c0,0,0.1,0,0.1,0c0.1,0,0.3-0.1,0.4-0.2c0.1,0,0.1-0.1,0.2-0.1c0.1,0,0.1-0.1,0.2-0.1
		c0.1,0,0.1-0.1,0.2-0.1c0.1-0.1,0.2-0.2,0.3-0.3c0.3-0.3,0.6-0.6,0.8-0.8c0.1-0.1,0.3-0.3,0.4-0.4c0.1-0.1,0.1-0.1,0.2-0.2
		c0.6-0.5,1.2-1,1.9-1.5c0.6-0.5,1.2-1,1.8-1.5c3.9-3.2,7.8-6.4,11.6-9.8c0.3-0.3,0.6-0.6,0.9-0.9c0.3-0.3,0.6-0.6,0.8-0.9
		c0.2-0.3,0.5-0.6,0.7-0.9c0.2-0.3,0.4-0.6,0.6-0.9c0.2-0.3,0.3-0.6,0.4-0.9c0.1-0.1,0.1-0.3,0.2-0.4c0-0.1,0.1-0.3,0.1-0.4
		c0.3-1.1,0.3-2.2,0-3.4c-0.1-0.3-0.2-0.6-0.3-0.8c-0.1-0.3-0.2-0.6-0.4-0.8c-0.1-0.3-0.3-0.6-0.5-0.9c-0.1-0.1-0.1-0.2-0.2-0.3
		c-0.1-0.2-0.3-0.4-0.4-0.7c-0.1-0.1-0.2-0.3-0.3-0.4c-0.2-0.3-0.4-0.6-0.7-0.9c-0.1-0.1-0.2-0.3-0.4-0.4c0,0-0.1-0.1-0.1-0.2
		c0,0-0.1-0.1-0.1-0.1c-0.2-0.2-0.4-0.4-0.5-0.6c0,0,0,0,0,0c0,0,0,0-0.1-0.1c-0.3-0.4-0.6-0.8-0.9-1.1c-2-2.5-3.6-2.9-6.5-1.7
		c-10.7,4.3-21,9.5-30.6,16c-8.2,5.6-16.1,11.6-23.2,18.7c-8.3,8.2-3.1,22.3,6.5,24.7c1.2,0.3,2.4,0.7,3.7,1
		c1.2,0.3,2.4,0.6,3.6,0.9c0,0,0.1,0,0.1,0c0.4,0.1,0.9,0.2,1.3,0.3c0.7,0.2,1.4,0.4,2.1,0.6c0.8,0.2,1.6,0.4,2.4,0.6
		c1.3,0.3,2.5,0.7,3.8,1c1.9,0.5,3.7,1.4,6.2,2.5c-0.8,0.6-1.3,1-1.8,1.4c-0.1,0.1-0.2,0.1-0.3,0.2c-0.1,0.1-0.3,0.2-0.4,0.3
		c-0.1,0.1-0.2,0.1-0.3,0.2c-0.1,0.1-0.2,0.1-0.3,0.2c-2.7,1.5-5.4,3-8.1,4.5c-2.7,1.5-5.4,3-8.1,4.4c-0.9,0.5-1.7,1-2.6,1.4
		c-0.9,0.5-1.7,1-2.6,1.4c0,0-0.1,0-0.1,0.1c-0.6,0.3-1.2,0.7-1.8,1.1c-0.7,0.4-1.3,0.8-2,1.2c-1,0.6-1.9,1.1-2.9,1.7
		c-0.7,0.4-1.3,0.8-2,1.2c-1.6,1-3.2,2-4.8,3c-0.9,0.6-1.8,1.2-2.7,1.7c0,0,0,0,0,0c-0.2,0.1-0.4,0.3-0.6,0.4
		c-0.1,0-0.1,0.1-0.2,0.1c0,0-0.1,0.1-0.1,0.1c-0.8,0.5-1.6,1.1-2.4,1.6c-1.3,0.9-2.6,1.9-3.9,2.8c-1.3,1-2.6,1.9-3.9,2.9
		c-1.6,1.3-3.4,2.5-4.5,4.2c-1,1.5-1,3.7-1.4,5.7c1.9,0.3,3,0.6,4.1,0.8c0.2,1.1,0.3,1.9,0.6,3.4c7.3-3,14.2-5.6,21-8.5
		c3.9-1.7,7.6-3.9,11.6-5.4c11.6-4.5,22-10.9,32.1-17.9c0.2-0.1,0.3-0.2,0.5-0.3c0.1-0.1,0.2-0.2,0.4-0.3c0.2-0.2,0.4-0.3,0.6-0.5
		c0.2-0.2,0.3-0.3,0.5-0.5c0.2-0.2,0.4-0.4,0.5-0.5l0,0c0,0,0,0,0,0c0.1-0.1,0.2-0.2,0.3-0.4c0.1-0.1,0.2-0.3,0.4-0.4
		c0.1-0.2,0.3-0.3,0.4-0.5c0,0,0,0,0-0.1c0.1-0.2,0.2-0.3,0.3-0.5c0.1-0.1,0.2-0.3,0.3-0.4c0,0,0-0.1,0.1-0.1
		c0.1-0.2,0.2-0.3,0.3-0.5c0.1-0.1,0.1-0.2,0.2-0.4c0.1-0.2,0.2-0.3,0.2-0.5c0.4-0.8,0.7-1.7,0.9-2.7c0-0.2,0.1-0.5,0.1-0.7
		c0.4-2.3,1.5-3.2,3.3-4c4-1.9,7.9-4,11.8-6c0.7-0.4,1.5-0.5,2.5-0.8c-0.9,2-1.8,3.9-2.7,5.8c-0.9,1.9-1.8,3.7-2.6,5.6
		c-0.7,1.5-1.4,2.9-2.2,4.3v0c-0.4,0.7-0.7,1.4-1.1,2.1c-0.1,0.2-0.2,0.3-0.2,0.5c-0.1,0.2-0.1,0.3-0.2,0.5
		c-0.2,0.5-0.3,0.9-0.4,1.4c0,0.1,0,0.2-0.1,0.3c0,0.1,0,0.1,0,0.2c0,0,0,0,0,0c0,0.1,0,0.2,0,0.3c0,0.2,0,0.3,0,0.5
		c0,0.2,0,0.5,0,0.7c0,0,0,0.1,0,0.1c0,0.2,0.1,0.5,0.1,0.7c0.1,0.3,0.2,0.5,0.3,0.7c0.1,0.1,0.1,0.2,0.2,0.4
		c0.1,0.1,0.1,0.2,0.2,0.4c0.2,0.3,0.4,0.7,0.6,1c0.2,0.3,0.4,0.7,0.6,1c0.2,0.3,0.4,0.7,0.7,1c0.2,0.3,0.5,0.6,0.7,1
		c0.2,0.3,0.4,0.5,0.6,0.8c0.5,0.6,1,1.1,1.5,1.7c0.1,0.1,0.2,0.2,0.4,0.3c0.2,0.2,0.4,0.4,0.7,0.6c1.2,1.1,2.6,1.6,4.2,1.6
		c0.2,0,0.4,0,0.6,0c0.1,0,0.2,0,0.3,0c0.1,0,0.2,0,0.3,0c0.3,0,0.6-0.1,0.8-0.2c0.3-0.1,0.6-0.2,0.9-0.3c0.1,0,0.3-0.1,0.4-0.2
		c2.4-0.9,4.9-1.8,7.3-2.8c1.2-0.5,2.4-0.9,3.7-1.4c1.2-0.4,2.4-0.9,3.7-1.3c2.6-0.9,5.2-1.9,7.8-2.7c0.8-0.3,1.5-0.5,2.3-0.8
		c0.5-0.2,0.9-0.3,1.4-0.5c1.1-0.4,2.1-0.7,3.2-1c22.9-7.2,45.6-14.9,68.9-20.5c1.2-0.3,2.2-1,3.6-1.5c-0.9-0.7-1.2-1-2.1-1.7
		c6.2-1.7,11.8-3.4,17.5-4.5c6.3-1.2,12.8-1.8,18.9-4.1c3.1-1.2,6.2-2.4,9.4-3.1c4.6-1.1,9.3-1.7,13.9-2.6c2.4-0.4,4.7-1,7.1-1.6
		C1856.6,1165.4,1856.6,1165.1,1856.5,1164.7z"/>
	<path class="st0" d="M1263.6,1229.9c-0.3-1.3-0.1-2.2,0.3-3c1.7-3.2,3.4-6.4,5.3-9.5c8.3-13,16.7-26,25.1-39c2.4-3.7,2.7-5.6,0-8.4
		c-1.6-1.6-4.3-2.3-6.6-3.1c-1.8-0.6-3.3,0.1-4.5,1.6c-1.7,2.2-3.7,4.3-6.1,7c-0.9-1.2-1.3-1.9-1.9-2.5c-6.3-6.3-12.2-7.3-20.1-3.1
		c-3.9,2.1-7.7,4.4-11.1,7.1c-9.8,8-18.7,17-26.5,27c-1.4,1.8-3.2,3.5-5.1,4.9c-11.6,8.2-23.2,16.4-34.8,24.5c-0.3,0.2-0.8,0-1.3,0
		c0.3-0.7,0.4-1.1,0.6-1.5c8-12.1,16-24.2,24-36.3c2.2-3.3,4.6-6.4,6.6-9.8c2.3-4,0.3-8.8-4-10.3c-4.8-1.8-7.2-1.3-10.2,2.9
		c-6.3,8.9-12.5,17.8-18.6,26.8c-8.2,12.3-15.8,25.1-22.4,38.4c-2.7,5.3-2.1,9.5,1.5,13.8c2.7,3.1,5.9,4.2,9.6,2.1
		c2.3-1.3,4.4-3,6.4-4.8c8.1-7.3,16-14.7,24.1-21.9c2.4-2.2,5-4.1,7.5-6.1c-1,4-2.5,7.6-3.9,11.2c-1.2,3.2-1.6,6.7,0.2,9.6
		c4.1,6.7,9.9,10.5,18.6,4.9c10.7-6.9,19.2-16.3,28.2-25.1c1.1-1,2-2.2,3-3.3c0.1,1.8-0.5,3.2-1,4.6c-1.2,3.4-2.5,6.8-3.4,10.3
		c-1,4.1,0.8,7.5,4,9.9c3.2,2.4,6.7,2.4,10.1,0.1c2.5-1.7,5.1-3.2,7.4-5.1c8.5-7,17-14.1,25.4-21.2c0.7-0.6,1.2-1.4,1.8-2.1
		c1.3-1.5,2.5-3.2,4-4.5c2.2-1.8,4.6-3.3,6.8-5.1c0.8-0.6,2-1.7,1.9-2.4c-0.3-2.3,1.3-3.1,2.6-4.1c2.7-2.1,5.6-4.1,8.4-6.2
		c2-1.4,2-1.4,3.6-4.1C1300.4,1206.3,1282,1218.1,1263.6,1229.9z M1215.1,1236.1c3.1-5,5.9-10.2,9.4-14.9
		c7.5-10.1,15.6-19.8,25.4-27.8c4.4-3.6,9-6.8,13.7-10c1.9-1.3,4.2-2.2,6.5-0.4C1266.2,1192.3,1226.7,1231,1215.1,1236.1z"/>
	<path class="st0" d="M1583.6,1200.3c5.8-4,10.8-7.5,15.8-11c4.3-3,8.5-6,12.8-8.9c2-1.3,4-2.6,6.5-1.2c0,0.4,0,0.8-0.1,1
		c-5.2,5.4-10.5,10.8-15.8,16.1c-5.7,5.7-11.4,11.3-17.1,17c-1.6,1.5-3.2,3-5,4.4c-4.6,3.6-8.3,3.9-12.2,1.4
		c-2.6-1.7-4.7-7.8-3.6-11.6c1.2-4.1,2.7-8.1,4.2-12.1c0.6-1.7,1.4-3.4,1.5-5.6c-0.7,0.6-1.4,1.2-2.1,1.9
		c-9.4,10.4-18.6,21.1-29.5,30c-1.9,1.6-4,3.2-6.2,4.3c-8.2,4.1-16.1-1.7-16.1-10.2c0-3.5,1.1-7.2,2.5-10.5c2.7-6.5,6-12.8,9-19.3
		c6.5-13.9,15.6-26.2,23.9-39c2.5-3.8,5.7-4.3,9.7-2.1c3.7,2,5.4,5.9,3.4,9.5c-3.9,7.2-8.2,14.2-12.3,21.3
		c-5.7,9.8-11.3,19.7-16.9,29.5c0.2,0.3,0.5,0.5,0.7,0.8c0.6-0.2,1.3-0.4,1.7-0.7c10.4-9,20.6-18.2,29.6-28.6
		c3.3-3.8,7-7.2,10.5-10.9c6.1-6.6,12.3-13.1,17.3-20.7c1.2-1.8,2.8-3.4,4.3-5.1c2.8-3,5.4-3.3,8.8-1.1c3.6,2.3,4.9,5.6,3.2,9.2
		c-1.1,2.3-2.7,4.3-3.9,6.5c-7,12.1-14.1,24.3-21.1,36.4C1585.7,1193.5,1584.1,1196.2,1583.6,1200.3z"/>
	<path class="st0" d="M1412.6,1268.1c3-3.3,6.6-4.4,10.6-5c10.9-1.6,21.8-3.4,32.7-4.8c9.5-1.2,19.2-1.6,28.7-2.6
		c13.9-1.5,27.9-3.2,41.8-4.7c5.6-0.6,11.3-1.1,17-1.5c15.7-1.3,31.4-2.6,47.1-4c15.1-1.3,30.1-3,45.2-4.2c8.5-0.7,17-0.5,25.5-0.9
		c13.4-0.7,26.7-1.7,40.1-2.5c6.5-0.4,13.1-0.6,19.7-0.3c-9.2,1-18.4,2-27.7,3c-2,0.2-4,0.7-6.1,0.9c-7.2,0.8-14.4,1.6-21.6,2.3
		c-16,1.4-32,2.7-48.1,4c-6.9,0.6-13.8,0.9-20.7,1.6c-4.2,0.5-8.3,1.6-12.4,2.4c-1.1,0.2-2.1,0.7-3.2,0.8
		c-6.7,0.7-13.4,1.5-20.2,2.1c-1.4,0.1-2.8-0.4-4.2-0.4c-2,0-4.1-0.2-6,0.3c-6.5,2-13,3.4-19.8,1.8c-2-0.5-4.4,0.1-6.6,0.4
		c-6.4,0.8-12.7,1.8-19.2,1.8c-7.2-0.1-14.4,1.3-21.6,2.1c-21.2,2.3-42.3,4.7-63.5,7.1C1417.6,1268,1415.1,1268,1412.6,1268.1z"/>
	<path class="st0" d="M1420.1,1260.9c4.6-1.9,36.5-5.5,45-4.6c-1.7,0.5-3.3,1.2-5,1.3c-11.9,1.1-23.8,2.2-35.7,3.2
		C1423.1,1261,1421.7,1260.9,1420.1,1260.9z"/>
	<path class="st0" d="M1341.4,1269.8c3.5-2,27.5-4.9,33-4.1C1363.8,1267.7,1353,1269,1341.4,1269.8z"/>
	<path class="st0" d="M917,1362c0.6-3.7,2.5-6.7,4.5-9.7c0.3,0.1,0.6,0.3,0.8,0.4c-1.5,3.3-3,6.5-4.5,9.8
		C917.5,1362.3,917.3,1362.1,917,1362z"/>
	<path class="st0" d="M919.3,1332.2c0.1-0.1,0.1-0.2,0.2-0.3c0,0.1-0.1,0.3-0.1,0.4C919.4,1332.2,919.3,1332.2,919.3,1332.2z"/>
	<path class="st0" d="M919.5,1331.8c0.1-0.4,0.2-0.9,0.2-1.3C919.7,1331,919.6,1331.4,919.5,1331.8
		C919.5,1331.8,919.5,1331.8,919.5,1331.8z"/>
	<path class="st0" d="M946.9,1267.3C946.9,1267.3,946.9,1267.3,946.9,1267.3c0,0.1,0,0.1,0,0.2
		C946.9,1267.5,946.9,1267.4,946.9,1267.3z"/>
	<path class="st0" d="M947.1,1267.1c0,0.1-0.1,0.1-0.2,0.2C947,1267.2,947,1267.1,947.1,1267.1L947.1,1267.1L947.1,1267.1
		C947,1267.1,947.1,1267.1,947.1,1267.1z"/>
	<path class="st0" d="M956.2,1271.5c0.1-0.1,0.2-0.1,0.2-0.2C956.4,1271.4,956.3,1271.5,956.2,1271.5
		C956.3,1271.6,956.2,1271.5,956.2,1271.5z"/>
	<path class="st0" d="M959.7,1263.9c-1.1,2.4-2.1,4.9-3.2,7.3c0,0,0,0,0,0C957.5,1268.8,958.6,1266.3,959.7,1263.9z"/>
	<path class="st0" d="M919.3,1332.2c-0.1,1.1-0.2,2.3-0.3,3.4c-0.4-0.1-0.8-0.2-1.2-0.3c0.5-1,1.1-2,1.6-3
		C919.4,1332.3,919.3,1332.2,919.3,1332.2z"/>
</g>
</svg>
