<?xml version="1.0" encoding="utf-8"?>
<!-- Generator: Adobe Illustrator 27.5.0, SVG Export Plug-In . SVG Version: 6.00 Build 0)  -->
<svg version="1.1" id="_ÎÓÈ_1" xmlns="http://www.w3.org/2000/svg" xmlns:xlink="http://www.w3.org/1999/xlink" x="0px" y="0px"
	 viewBox="0 0 3222.8 2116.2" style="enable-background:new 0 0 3222.8 2116.2;" xml:space="preserve">
<style type="text/css">
	.st0{fill:#ED733A;}
	.st1{fill:#9F5BE5;}
	.st2{fill:none;}
	.st3{fill:#FFFFFF;}
	.st4{fill:#2D2D2D;}
	.st5{fill:url(#SVGID_1_);}
	.st6{fill:url(#SVGID_00000041261773816930201120000017709950755852495784_);}
	.st7{fill:url(#SVGID_00000078029827753529220010000012361152246947488163_);}
	.st8{fill:url(#SVGID_00000005983138282596892500000006832557931577441922_);}
	.st9{fill:url(#SVGID_00000060013748039392000150000010278041916214368937_);}
	.st10{fill:url(#SVGID_00000008844377858224863470000007939234337975483325_);}
	.st11{fill:url(#SVGID_00000107566749830912665450000012726598962630704789_);}
	.st12{fill:url(#SVGID_00000127038039919112114090000009530975465698032803_);}
	.st13{fill:url(#SVGID_00000134960586956010213700000016102620742285069742_);}
	.st14{fill:url(#SVGID_00000033339178994084327170000000618337367821303479_);}
	.st15{enable-background:new    ;}
	.st16{fill:#1A1919;enable-background:new    ;}
	.st17{filter:url(#Adobe_OpacityMaskFilter);}
	.st18{mask:url(#_x37_c1b9927d1_00000139991274719833484260000008046529039579426743_);}
</style>
<g>
	<linearGradient id="SVGID_1_" gradientUnits="userSpaceOnUse" x1="2321.8149" y1="1200.9944" x2="2403.0151" y2="1200.9944">
		<stop  offset="0" style="stop-color:#4E4D56"/>
		<stop  offset="6.760182e-02" style="stop-color:#5C5366"/>
		<stop  offset="0.2495" style="stop-color:#7D628B"/>
		<stop  offset="0.4313" style="stop-color:#976EA8"/>
		<stop  offset="0.6107" style="stop-color:#A976BD"/>
		<stop  offset="0.7867" style="stop-color:#B47BCA"/>
		<stop  offset="0.9553" style="stop-color:#B87DCE"/>
	</linearGradient>
	<polygon class="st5" points="2403,1177.6 2403,1082.9 2321.8,1166.2 2321.8,1319 2403,1319 2403,1200.1 	"/>
	
		<linearGradient id="SVGID_00000156570075374166929850000000845239207676879240_" gradientUnits="userSpaceOnUse" x1="1988.0951" y1="1045.3605" x2="2403.0051" y2="1045.3605">
		<stop  offset="0" style="stop-color:#4E4D56"/>
		<stop  offset="6.760182e-02" style="stop-color:#5C5366"/>
		<stop  offset="0.2495" style="stop-color:#7D628B"/>
		<stop  offset="0.4313" style="stop-color:#976EA8"/>
		<stop  offset="0.6107" style="stop-color:#A976BD"/>
		<stop  offset="0.7867" style="stop-color:#B47BCA"/>
		<stop  offset="0.9553" style="stop-color:#B87DCE"/>
	</linearGradient>
	<path style="fill:url(#SVGID_00000156570075374166929850000000845239207676879240_);" d="M2403,1056.1
		c-9.4-30.6-26.2-59.3-50.4-83.5c-79.3-79.2-207.8-79.2-287,0l-77.5,77.5v127.6l141.3-141.3c44-44,115.4-44,159.4,0
		c28.1,28.1,38.2,67.3,30.5,103.4L2403,1056.1L2403,1056.1z"/>
	
		<linearGradient id="SVGID_00000139275325785369430460000018047869552803424947_" gradientUnits="userSpaceOnUse" x1="2028.6849" y1="1195.8143" x2="2118.885" y2="1195.8143">
		<stop  offset="0" style="stop-color:#4E4D56"/>
		<stop  offset="6.760182e-02" style="stop-color:#5C5366"/>
		<stop  offset="0.2495" style="stop-color:#7D628B"/>
		<stop  offset="0.4313" style="stop-color:#976EA8"/>
		<stop  offset="0.6107" style="stop-color:#A976BD"/>
		<stop  offset="0.7867" style="stop-color:#B47BCA"/>
		<stop  offset="0.9553" style="stop-color:#B87DCE"/>
	</linearGradient>
	<polygon style="fill:url(#SVGID_00000139275325785369430460000018047869552803424947_);" points="2028.7,1319 2118.9,1319 
		2118.9,1072.6 2028.7,1162.8 	"/>
	
		<linearGradient id="SVGID_00000126307905669242909140000009138893991350851968_" gradientUnits="userSpaceOnUse" x1="1712.9851" y1="1206.9694" x2="1803.1849" y2="1206.9694">
		<stop  offset="0" style="stop-color:#4E4D56"/>
		<stop  offset="6.760182e-02" style="stop-color:#5C5366"/>
		<stop  offset="0.2495" style="stop-color:#7D628B"/>
		<stop  offset="0.4313" style="stop-color:#976EA8"/>
		<stop  offset="0.6107" style="stop-color:#A976BD"/>
		<stop  offset="0.7867" style="stop-color:#B47BCA"/>
		<stop  offset="0.9553" style="stop-color:#B87DCE"/>
	</linearGradient>
	<polygon style="fill:url(#SVGID_00000126307905669242909140000009138893991350851968_);" points="1713,1319 1803.2,1319 
		1803.2,1094.9 1713,1185.1 	"/>
	
		<linearGradient id="SVGID_00000080902996154995346560000013943847511733046675_" gradientUnits="userSpaceOnUse" x1="1262.0751" y1="1116.0743" x2="2049.4153" y2="1116.0743">
		<stop  offset="0" style="stop-color:#4E4D56"/>
		<stop  offset="6.760182e-02" style="stop-color:#5C5366"/>
		<stop  offset="0.2495" style="stop-color:#7D628B"/>
		<stop  offset="0.4313" style="stop-color:#976EA8"/>
		<stop  offset="0.6107" style="stop-color:#A976BD"/>
		<stop  offset="0.7867" style="stop-color:#B47BCA"/>
		<stop  offset="0.9553" style="stop-color:#B87DCE"/>
	</linearGradient>
	<path style="fill:url(#SVGID_00000080902996154995346560000013943847511733046675_);" d="M1803.2,947.3v-34.2H1713V1032l-18,18v0
		l-71.2,71.2l-64,64.1l-10.6,10.6c-20.4,20.4-48.6,33-79.7,33h-117.2l-90.2,90.2h207.4c51.1,0,97.7-18.9,133.4-50
		c3.5-3,6.9-6.2,10.1-9.5l64.4-64.4l17.6-17.6v0l141.3-141.3c40.8-40.8,104.9-43.8,149.2-9.1l64-64
		C1979.8,902.3,1878.4,897,1803.2,947.3L1803.2,947.3z"/>
</g>
<linearGradient id="SVGID_00000165202160410821268360000002065292044152276655_" gradientUnits="userSpaceOnUse" x1="1116.825" y1="1094.5294" x2="1294.8348" y2="1094.5294">
	<stop  offset="0" style="stop-color:#4E4D56"/>
	<stop  offset="6.760182e-02" style="stop-color:#5C5366"/>
	<stop  offset="0.2495" style="stop-color:#7D628B"/>
	<stop  offset="0.4313" style="stop-color:#976EA8"/>
	<stop  offset="0.6107" style="stop-color:#A976BD"/>
	<stop  offset="0.7867" style="stop-color:#B47BCA"/>
	<stop  offset="0.9553" style="stop-color:#B87DCE"/>
</linearGradient>
<line style="fill:url(#SVGID_00000165202160410821268360000002065292044152276655_);" x1="1294.8" y1="1005.5" x2="1116.8" y2="1183.5"/>
<g>
	
		<linearGradient id="SVGID_00000047757295145716007900000014003859432916404150_" gradientUnits="userSpaceOnUse" x1="1435.2948" y1="1154.2543" x2="1435.575" y2="1154.2543">
		<stop  offset="0" style="stop-color:#4E4D56"/>
		<stop  offset="6.760182e-02" style="stop-color:#5C5366"/>
		<stop  offset="0.2495" style="stop-color:#7D628B"/>
		<stop  offset="0.4313" style="stop-color:#976EA8"/>
		<stop  offset="0.6107" style="stop-color:#A976BD"/>
		<stop  offset="0.7867" style="stop-color:#B47BCA"/>
		<stop  offset="0.9553" style="stop-color:#B87DCE"/>
	</linearGradient>
	<polygon style="fill:url(#SVGID_00000047757295145716007900000014003859432916404150_);" points="1435.3,1154.6 1435.6,1153.9 
		1435.6,1154.6 	"/>
	
		<linearGradient id="SVGID_00000124846263530388090630000002093924991546779578_" gradientUnits="userSpaceOnUse" x1="929.2648" y1="1161.9535" x2="1316.4851" y2="1161.9535">
		<stop  offset="0" style="stop-color:#4E4D56"/>
		<stop  offset="6.760182e-02" style="stop-color:#5C5366"/>
		<stop  offset="0.2495" style="stop-color:#7D628B"/>
		<stop  offset="0.4313" style="stop-color:#976EA8"/>
		<stop  offset="0.6107" style="stop-color:#A976BD"/>
		<stop  offset="0.7867" style="stop-color:#B47BCA"/>
		<stop  offset="0.9553" style="stop-color:#B87DCE"/>
	</linearGradient>
	<path style="fill:url(#SVGID_00000124846263530388090630000002093924991546779578_);" d="M1296.1,1004.3
		c-19.5,19.6-143.6,144.3-189,188.9c-18.1,17.8-41.4,33.7-67,35.1c-33.1,1.9-67.2-5.1-93-29.3l-17.8,17.8v79.4
		c31,16.4,65.4,24.2,99.6,23.4c50.3-1.2,100.2-21,138.6-59.4l84.3-84.3l-1.2,1.2l65.8-64.9c-15.3-23.1-22.7-52.4-22.7-82.1
		C1293.8,1021.3,1294.6,1012.7,1296.1,1004.3L1296.1,1004.3z"/>
</g>
<linearGradient id="SVGID_00000159460585401600488280000008190969545216670597_" gradientUnits="userSpaceOnUse" x1="1315.0452" y1="1047.7192" x2="1667.4851" y2="1047.7192">
	<stop  offset="0" style="stop-color:#4E4D56"/>
	<stop  offset="6.760182e-02" style="stop-color:#5C5366"/>
	<stop  offset="0.2495" style="stop-color:#7D628B"/>
	<stop  offset="0.4313" style="stop-color:#976EA8"/>
	<stop  offset="0.6107" style="stop-color:#A976BD"/>
	<stop  offset="0.7867" style="stop-color:#B47BCA"/>
	<stop  offset="0.9553" style="stop-color:#B87DCE"/>
</linearGradient>
<path style="fill:url(#SVGID_00000159460585401600488280000008190969545216670597_);" d="M1577.5,1003.3l90-89.8h-231.9
	c-66.5,0-120.5,54.1-120.5,120.5s54.1,120.5,120.5,120.5h70.3c15.8,0,28.9,12,30.6,27.3l7.2-7.2l59.9-59.9
	c-21.9-30.3-57.5-50-97.7-50h-70.3c-17,0-30.8-13.8-30.8-30.8s13.8-30.8,30.8-30.8l0,0H1577.5L1577.5,1003.3z"/>
<linearGradient id="SVGID_00000083083171244039431370000017204254661319787676_" gradientUnits="userSpaceOnUse" x1="819.775" y1="995.8694" x2="1205.8351" y2="995.8694">
	<stop  offset="0" style="stop-color:#4E4D56"/>
	<stop  offset="6.760182e-02" style="stop-color:#5C5366"/>
	<stop  offset="0.2495" style="stop-color:#7D628B"/>
	<stop  offset="0.4313" style="stop-color:#976EA8"/>
	<stop  offset="0.6107" style="stop-color:#A976BD"/>
	<stop  offset="0.7867" style="stop-color:#B47BCA"/>
	<stop  offset="0.9553" style="stop-color:#B87DCE"/>
</linearGradient>
<polygon style="fill:url(#SVGID_00000083083171244039431370000017204254661319787676_);" points="1205.8,913.1 1081.8,913.1 
	910.2,1085.6 910.2,732.7 910.2,672.7 820,762.9 820,1185.1 820,1189.2 819.8,1298.9 820,1298.7 820,1319 910.2,1319 910.2,1284.9 
	910.2,1208.5 910.9,1207.8 1085.7,1033.2 1086.1,1033.6 1141,978.6 1140.7,978.2 "/>
<image style="overflow:visible;opacity:0.8;" width="1632" height="129" xlink:href="F2E1C102.png"  transform="matrix(1 0 0 1 795.4199 1339.1699)">
</image>
<g>
	<g>
		<g class="st15">
			<path class="st3" d="M819.8,1442.1v-77.5h27.3c4.8,0,8.5,0.2,11,0.7c3.6,0.6,6.5,1.8,8.9,3.6c2.4,1.8,4.3,4.3,5.8,7.5
				c1.5,3.2,2.2,6.7,2.2,10.6c0,6.6-2,12.2-5.9,16.7c-3.9,4.6-11,6.8-21.2,6.8h-18.6v31.5H819.8z M829.4,1401.5h18.7
				c6.2,0,10.6-1.2,13.2-3.7c2.6-2.5,3.9-5.9,3.9-10.4c0-3.2-0.8-6-2.3-8.3c-1.5-2.3-3.5-3.8-6-4.6c-1.6-0.5-4.6-0.7-8.9-0.7h-18.5
				V1401.5z"/>
			<path class="st3" d="M989.5,1442.1v-77.5h32.1c6.5,0,11.4,0.7,14.7,2.1c3.4,1.4,6,3.9,8,7.4c2,3.5,3,7.4,3,11.7
				c0,5.5-1.7,10.1-5,13.9c-3.3,3.8-8.5,6.2-15.4,7.2c2.5,1.3,4.5,2.6,5.8,3.9c2.8,2.7,5.4,6.2,8,10.3l12.6,21.1h-12.1l-9.6-16.1
				c-2.8-4.7-5.1-8.2-6.9-10.7c-1.8-2.5-3.4-4.2-4.9-5.2c-1.4-1-2.9-1.7-4.4-2.1c-1.1-0.2-2.9-0.4-5.3-0.4h-11.1v34.4H989.5z
				 M999.1,1398.8h20.6c4.4,0,7.8-0.5,10.3-1.5c2.5-1,4.3-2.5,5.6-4.7c1.3-2.1,1.9-4.5,1.9-7c0-3.7-1.2-6.7-3.7-9
				c-2.5-2.4-6.4-3.5-11.8-3.5h-22.9V1398.8z"/>
			<path class="st3" d="M1161.7,1404.4c0-12.9,3.2-22.9,9.7-30.2c6.5-7.3,14.8-10.9,25-10.9c6.7,0,12.7,1.7,18.1,5.1
				c5.4,3.4,9.5,8.2,12.3,14.3c2.8,6.1,4.2,13.1,4.2,20.8c0,7.9-1.5,14.9-4.4,21.1c-3,6.2-7.2,10.9-12.6,14.1
				c-5.4,3.2-11.3,4.8-17.6,4.8c-6.8,0-12.9-1.8-18.3-5.3c-5.4-3.5-9.4-8.3-12.2-14.4C1163.1,1417.6,1161.7,1411.2,1161.7,1404.4z
				 M1171.6,1404.5c0,9.3,2.3,16.7,7,22.1c4.7,5.4,10.6,8.1,17.7,8.1c7.2,0,13.1-2.7,17.8-8.1c4.7-5.4,7-13.1,7-23.1
				c0-6.3-1-11.8-3-16.5c-2-4.7-4.9-8.4-8.7-10.9s-8.1-3.9-12.9-3.9c-6.8,0-12.6,2.5-17.5,7.5
				C1174,1384.5,1171.6,1392.9,1171.6,1404.5z"/>
			<path class="st3" d="M1345.4,1442.1v-77.5h24.9c5.6,0,9.9,0.4,12.9,1.1c4.1,1,7.7,2.9,10.6,5.6c3.8,3.5,6.7,7.9,8.6,13.2
				c1.9,5.4,2.8,11.5,2.8,18.4c0,5.9-0.6,11.1-1.9,15.7c-1.3,4.5-2.9,8.3-4.9,11.3c-2,3-4.2,5.3-6.6,7c-2.4,1.7-5.3,3-8.6,3.9
				c-3.4,0.9-7.3,1.3-11.6,1.3H1345.4z M1355,1433h15.5c4.8,0,8.5-0.5,11.2-1.4c2.7-1,4.9-2.3,6.5-4c2.3-2.4,4-5.7,5.3-9.8
				c1.3-4.1,1.9-9.1,1.9-14.9c0-8.1-1.2-14.3-3.7-18.7c-2.5-4.4-5.5-7.3-9.1-8.8c-2.6-1.1-6.7-1.6-12.4-1.6H1355V1433z"/>
			<path class="st3" d="M1568.1,1364.6h9.6v44.8c0,7.8-0.8,14-2.5,18.6c-1.6,4.6-4.6,8.3-8.9,11.2c-4.3,2.9-9.9,4.3-16.9,4.3
				c-6.8,0-12.3-1.3-16.6-3.8c-4.3-2.5-7.4-6.1-9.2-10.9c-1.8-4.7-2.8-11.2-2.8-19.4v-44.8h9.6v44.7c0,6.7,0.6,11.7,1.8,14.9
				c1.2,3.2,3.2,5.7,6,7.4c2.8,1.7,6.3,2.6,10.4,2.6c7,0,12.1-1.7,15.1-5.1c3-3.4,4.5-10,4.5-19.7V1364.6z"/>
			<path class="st3" d="M1747.5,1414.9l9.6,2.6c-2,8.4-5.6,14.9-10.8,19.3c-5.2,4.4-11.6,6.6-19.1,6.6c-7.8,0-14.1-1.7-19-5.1
				c-4.9-3.4-8.6-8.3-11.2-14.8c-2.6-6.5-3.8-13.4-3.8-20.8c0-8.1,1.4-15.1,4.3-21.1c2.9-6,7-10.6,12.3-13.7
				c5.3-3.1,11.2-4.7,17.6-4.7c7.2,0,13.3,2,18.3,5.9c4.9,3.9,8.4,9.5,10.3,16.7l-9.4,2.4c-1.7-5.6-4.1-9.7-7.3-12.3
				c-3.2-2.6-7.2-3.9-12.1-3.9c-5.6,0-10.2,1.4-14,4.3c-3.7,2.9-6.4,6.7-7.9,11.5c-1.5,4.8-2.3,9.8-2.3,14.9
				c0,6.6,0.9,12.3,2.7,17.3c1.8,4.9,4.6,8.6,8.4,11c3.8,2.4,7.9,3.6,12.3,3.6c5.4,0,9.9-1.7,13.6-5
				C1743.7,1426.4,1746.2,1421.5,1747.5,1414.9z"/>
			<path class="st3" d="M1889.5,1442.1v-68.4h-23.9v-9.1h57.4v9.1h-24v68.4H1889.5z"/>
			<path class="st3" d="M2036.6,1442.1v-77.5h9.6v77.5H2036.6z"/>
			<path class="st3" d="M2162.3,1404.4c0-12.9,3.2-22.9,9.7-30.2c6.5-7.3,14.8-10.9,25-10.9c6.7,0,12.7,1.7,18.1,5.1
				c5.4,3.4,9.5,8.2,12.3,14.3c2.8,6.1,4.2,13.1,4.2,20.8c0,7.9-1.5,14.9-4.4,21.1c-3,6.2-7.2,10.9-12.6,14.1
				c-5.4,3.2-11.3,4.8-17.6,4.8c-6.8,0-12.9-1.8-18.3-5.3c-5.4-3.5-9.4-8.3-12.2-14.4C2163.7,1417.6,2162.3,1411.2,2162.3,1404.4z
				 M2172.2,1404.5c0,9.3,2.3,16.7,7,22.1c4.7,5.4,10.6,8.1,17.7,8.1c7.2,0,13.1-2.7,17.8-8.1c4.7-5.4,7-13.1,7-23.1
				c0-6.3-1-11.8-3-16.5c-2-4.7-4.9-8.4-8.7-10.9c-3.8-2.6-8.1-3.9-12.9-3.9c-6.8,0-12.6,2.5-17.5,7.5
				C2174.6,1384.5,2172.2,1392.9,2172.2,1404.5z"/>
			<path class="st3" d="M2346,1442.1v-77.5h9.8l38,60.9v-60.9h9.2v77.5h-9.8l-38-60.9v60.9H2346z"/>
		</g>
	</g>
</g>
</svg>
