<?xml version="1.0" encoding="utf-8"?>
<!-- Generator: Adobe Illustrator 27.5.0, SVG Export Plug-In . SVG Version: 6.00 Build 0)  -->
<svg version="1.1" id="_ÎÓÈ_1" xmlns="http://www.w3.org/2000/svg" xmlns:xlink="http://www.w3.org/1999/xlink" x="0px" y="0px"
	 viewBox="818 665 1595 664" style="enable-background:new 0 0 3222.8 2116.2;" xml:space="preserve">
<style type="text/css">
	.st0{fill:#ED733A;}
	.st1{fill:#9F5BE5;}
	.st2{fill:none;}
	.st3{fill:#FFFFFF;}
	.st4{fill:#2D2D2D;}
	.st5{fill:url(#SVGID_1_);}
	.st6{fill:url(#SVGID_00000178205431855754712140000009010564752224046468_);}
	.st7{fill:url(#SVGID_00000100368097591681444500000001730126479004571556_);}
	.st8{fill:url(#SVGID_00000178904585261361015130000013444585059417101476_);}
	.st9{fill:url(#SVGID_00000072959616063848674810000011756457082312688565_);}
	.st10{fill:url(#SVGID_00000053533150370521604220000017232688070879235508_);}
	.st11{fill:url(#SVGID_00000161628478582115166030000018058294170231346051_);}
	.st12{fill:url(#SVGID_00000085942388146630223750000005794785523553935243_);}
	.st13{fill:url(#SVGID_00000052080427397729832850000014661985415174235041_);}
	.st14{fill:url(#SVGID_00000001653829667687389350000006413838538913260184_);}
	.st15{enable-background:new    ;}
	.st16{fill:#1A1919;enable-background:new    ;}
	.st17{filter:url(#Adobe_OpacityMaskFilter);}
	.st18{mask:url(#_x37_c1b9927d1_00000139991274719833484260000008046529039579426743_);}
</style>
<polygon class="st0" points="2403,1177.6 2403,1082.9 2321.8,1166.2 2321.8,1319 2403,1319 2403,1200.1 "/>
<path class="st0" d="M2403,1056.1c-9.4-30.6-26.2-59.3-50.4-83.5c-79.3-79.2-207.8-79.2-287,0l-77.5,77.5v127.6l141.3-141.3
	c44-44,115.4-44,159.4,0c28.1,28.1,38.2,67.3,30.5,103.4L2403,1056.1L2403,1056.1z"/>
<polygon class="st0" points="2028.7,1319 2118.9,1319 2118.9,1072.6 2028.7,1162.8 "/>
<polygon class="st0" points="1713,1319 1803.2,1319 1803.2,1094.9 1713,1185.1 "/>
<path class="st1" d="M1803.2,947.3v-34.2H1713V1032l-18,18v0l-71.2,71.2l-64,64.1l-10.6,10.6c-20.4,20.4-48.6,33-79.7,33h-117.2
	l-90.2,90.2h207.4c51.1,0,97.7-18.9,133.4-50c3.5-3,6.9-6.2,10.1-9.5l64.4-64.4l17.6-17.6v0l141.3-141.3
	c40.8-40.8,104.9-43.8,149.2-9.1l64-64C1979.8,902.3,1878.4,897,1803.2,947.3L1803.2,947.3z"/>
<line class="st2" x1="1294.8" y1="1005.5" x2="1116.8" y2="1183.5"/>
<g>
	<polygon class="st3" points="1435.3,1154.6 1435.6,1153.9 1435.6,1154.6 	"/>
	<path class="st3" d="M1296.1,1004.3c-19.5,19.6-143.6,144.3-189,188.9c-18.1,17.8-41.4,33.7-67,35.1c-33.1,1.9-67.2-5.1-93-29.3
		l-17.8,17.8v79.4c31,16.4,65.4,24.2,99.6,23.4c50.3-1.2,100.2-21,138.6-59.4l84.3-84.3l-1.2,1.2l65.8-64.9
		c-15.3-23.1-22.7-52.4-22.7-82.1C1293.8,1021.3,1294.6,1012.7,1296.1,1004.3L1296.1,1004.3z"/>
</g>
<path class="st1" d="M1577.5,1003.3l90-89.8h-231.9c-66.5,0-120.5,54.1-120.5,120.5s54.1,120.5,120.5,120.5h70.3
	c15.8,0,28.9,12,30.6,27.3l7.2-7.2l59.9-59.9c-21.9-30.3-57.5-50-97.7-50h-70.3c-17,0-30.8-13.8-30.8-30.8s13.8-30.8,30.8-30.8l0,0
	H1577.5L1577.5,1003.3z"/>
<polygon class="st3" points="1205.8,913.1 1081.8,913.1 910.2,1085.6 910.2,732.7 910.2,672.7 820,762.9 820,1185.1 820,1189.2 
	819.8,1298.9 820,1298.7 820,1319 910.2,1319 910.2,1284.9 910.2,1208.5 910.9,1207.8 1085.7,1033.2 1086.1,1033.6 1141,978.6 
	1140.7,978.2 "/>
</svg>
